<svg xmlns="http://www.w3.org/2000/svg" width="79.655" height="40" viewBox="0 0 79.655 40">
  <g id="aria-logo-reverse" transform="translate(39.827 20)">
    <g id="Logo_-_Reverse" data-name="Logo - Reverse" transform="translate(-39.827 -20)">
      <g id="Group_52" data-name="Group 52" transform="translate(0 14.861)">
        <path id="Path_116" data-name="Path 116" d="M21.058,39.217V34.843A10.885,10.885,0,0,1,11.7,39.827c-7.223,0-11.7-5.9-11.7-12.716S4.476,14.7,11.6,14.7a10.987,10.987,0,0,1,9.359,4.68V15.209H23.4V39.217Zm-.814-17.294A9.868,9.868,0,0,0,11.8,16.938c-5.6,0-9.359,4.68-9.359,10.071S6,37.589,11.9,37.589s9.359-5.087,9.359-10.682a11.19,11.19,0,0,0-1.017-4.985Z" transform="translate(0 -14.691)" fill="#fff"/>
        <path id="Path_117" data-name="Path 117" d="M40.252,17.345a3.561,3.561,0,0,0-1.729-.509,4.374,4.374,0,0,0-2.442.814c-2.747,1.831-2.543,5.493-2.543,8.342V39.217H31.3V15.209h2.34v3.154c1.119-2.238,2.747-3.662,5.29-3.662a5.6,5.6,0,0,1,2.543.61Z" transform="translate(0.542 -14.69)" fill="#fff"/>
        <path id="Path_118" data-name="Path 118" d="M46.3,39.208V15.2h2.34V39.208Z" transform="translate(0.801 -14.682)" fill="#fff"/>
        <path id="Path_119" data-name="Path 119" d="M76.358,39.217V34.843A10.885,10.885,0,0,1,67,39.828c-7.223,0-11.7-5.9-11.7-12.716S59.776,14.7,66.9,14.7a10.987,10.987,0,0,1,9.461,4.68V15.209H78.7V39.217Zm-.814-17.294A9.868,9.868,0,0,0,67.1,16.938c-5.6,0-9.359,4.68-9.359,10.071S61.3,37.589,67.2,37.589s9.359-5.087,9.359-10.682A11.19,11.19,0,0,0,75.544,21.923Z" transform="translate(0.957 -14.691)" fill="#fff"/>
      </g>
      <path id="Path_120" data-name="Path 120" d="M31.5,4.17A17.4,17.4,0,0,0,43.2,6.814,35,35,0,0,0,54.9,3.254l2.95-1.221L60.9,1.016C61.917.812,63.036.507,64.054.3L65.681.1h1.628a19.125,19.125,0,0,1,6.409.814A12.818,12.818,0,0,1,79.11,4.271a17.4,17.4,0,0,0-11.7-2.645,35.1,35.1,0,0,0-11.7,3.459l-2.95,1.322L49.71,7.425A27.06,27.06,0,0,1,43.3,8.442a19.125,19.125,0,0,1-6.409-.916A12.818,12.818,0,0,1,31.5,4.17Z" transform="translate(0.545 -0.082)" fill="#fff"/>
    </g>
  </g>
</svg>
