<svg xmlns="http://www.w3.org/2000/svg" width="113.469" height="20" viewBox="0 0 113.469 20">
  <path id="icon-swoop" d="M63.048,62.862c8.27,5.783,18.438,7.14,27.959,6.223a83.3,83.3,0,0,0,27.727-8.4l7.049-3.022c2.427-.828,4.837-1.708,7.3-2.437,2.526-.527,4.975-1.319,7.549-1.619l3.828-.552c1.29-.094,2.587-.119,3.876-.179a45.405,45.405,0,0,1,15.271,2.078c4.842,1.67,9.529,4.14,12.911,7.908-8.273-5.776-18.44-7.128-27.96-6.216a83.423,83.423,0,0,0-27.727,8.4l-7.049,3.02c-2.429.823-4.837,1.713-7.3,2.432-4.994,1.2-10.051,2.371-15.251,2.347a45.41,45.41,0,0,1-15.271-2.074C71.118,69.1,66.433,66.63,63.048,62.862Z" transform="translate(-63.048 -52.859)" fill="#7ecbb7"/>
</svg>
