<svg xmlns="http://www.w3.org/2000/svg" xmlns:xlink="http://www.w3.org/1999/xlink" width="296" height="823.418" viewBox="0 0 296 823.418">
  <defs>
    <clipPath id="clip-path">
      <rect id="Rectangle_97" data-name="Rectangle 97" width="296" height="823.418" fill="none"/>
    </clipPath>
    <clipPath id="clip-path-2">
      <rect id="Rectangle_90" data-name="Rectangle 90" width="33.636" height="205.23" fill="none"/>
    </clipPath>
    <clipPath id="clip-path-4">
      <rect id="Rectangle_92" data-name="Rectangle 92" width="49.494" height="223.586" fill="none"/>
    </clipPath>
    <clipPath id="clip-path-6">
      <rect id="Rectangle_94" data-name="Rectangle 94" width="15.857" height="201.29" fill="none"/>
    </clipPath>
    <clipPath id="clip-path-8">
      <rect id="Rectangle_96" data-name="Rectangle 96" width="35.558" height="197.926" fill="none"/>
    </clipPath>
    <clipPath id="clip-path-11">
      <rect id="Rectangle_99" data-name="Rectangle 99" width="101.87" height="67.897" fill="none"/>
    </clipPath>
    <clipPath id="clip-path-13">
      <rect id="Rectangle_101" data-name="Rectangle 101" width="83.13" height="105.81" fill="none"/>
    </clipPath>
    <clipPath id="clip-path-15">
      <rect id="Rectangle_103" data-name="Rectangle 103" width="50.455" height="70.492" fill="none"/>
    </clipPath>
    <clipPath id="clip-path-17">
      <rect id="Rectangle_105" data-name="Rectangle 105" width="39.883" height="74.529" fill="none"/>
    </clipPath>
    <clipPath id="clip-path-19">
      <rect id="Rectangle_107" data-name="Rectangle 107" width="38.442" height="70.973" fill="none"/>
    </clipPath>
    <clipPath id="clip-path-21">
      <rect id="Rectangle_109" data-name="Rectangle 109" width="29.312" height="66.168" fill="none"/>
    </clipPath>
  </defs>
  <g id="how-it-works-02" transform="translate(148 411.709)">
    <g id="Group_156" data-name="Group 156" transform="translate(-148 -411.709)">
      <g id="Group_136" data-name="Group 136" clip-path="url(#clip-path)">
        <g id="Group_126" data-name="Group 126" transform="translate(105.234 69.675)" opacity="0.8">
          <g id="Group_125" data-name="Group 125" clip-path="url(#clip-path-2)">
            <g id="Group_124" data-name="Group 124" clip-path="url(#clip-path-2)">
              <path id="Path_280" data-name="Path 280" d="M24.492,54.968c1.922-11.052.961-40.844,12.974-40.364s7.688,12.974,7.208,20.182c-2.4,25.468,4.325,87.455,7.208,102.831s6.727,52.857.481,68.234-9.13,14.9-12.974,13.455-12.494-45.169-13.935-66.312c-.481-4.325-7.208-61.506-.961-98.026" transform="translate(-22.09 -14.124)" fill="#fff"/>
            </g>
          </g>
        </g>
        <g id="Group_129" data-name="Group 129" transform="translate(172.507 78.805)" opacity="0.8">
          <g id="Group_128" data-name="Group 128" clip-path="url(#clip-path-4)">
            <g id="Group_127" data-name="Group 127" clip-path="url(#clip-path-4)">
              <path id="Path_281" data-name="Path 281" d="M47.332,37.018C50.216,23.083,58.384,12.512,69.917,17.8A29.312,29.312,0,0,1,85.293,38.94c.481,12.974-18.26,117.247-18.74,122.052s-9.13,70.636-9.61,74.48-6.727,8.169-9.61-.961A271.975,271.975,0,0,1,35.8,168.681c0-25.468,1.442-85.052,11.052-132.143" transform="translate(-36.281 -16.356)" fill="#fff"/>
            </g>
          </g>
        </g>
        <g id="Group_132" data-name="Group 132" transform="translate(128.779 374.325)" opacity="0.8">
          <g id="Group_131" data-name="Group 131" clip-path="url(#clip-path-6)">
            <g id="Group_130" data-name="Group 130" clip-path="url(#clip-path-6)">
              <path id="Path_282" data-name="Path 282" d="M26.8,85.682c0-4.805.961-7.208,2.883-7.688s6.247,0,8.649,11.532c6.727,30.753,4.805,126.857,2.4,153.766s-3.844,30.753-4.805,34.117-4.325,2.883-3.844-2.4,0-90.338-.961-113.4-3.844-74.961-3.844-74.961" transform="translate(-26.8 -77.993)" fill="#fff"/>
            </g>
          </g>
        </g>
        <g id="Group_135" data-name="Group 135" transform="translate(162.896 383.455)" opacity="0.8">
          <g id="Group_134" data-name="Group 134" clip-path="url(#clip-path-8)">
            <g id="Group_133" data-name="Group 133" clip-path="url(#clip-path-8)">
              <path id="Path_283" data-name="Path 283" d="M47.338,132.689c1.442-17.3,3.364-41.805,3.844-45.649s3.844-7.688,7.688-7.208A11.052,11.052,0,0,1,69.441,90.4a394.51,394.51,0,0,1-7.208,76.883c-5.286,25.467-15.857,69.675-17.779,77.844A178.75,178.75,0,0,0,39.649,273c0,4.805-4.325,7.208-4.805,1.442a239.783,239.783,0,0,1-.48-36.039c1.442-9.13,8.649-48.533,9.61-64.87l2.883-40.844" transform="translate(-33.883 -79.832)" fill="#fff"/>
            </g>
          </g>
        </g>
      </g>
      <g id="Group_155" data-name="Group 155" clip-path="url(#clip-path)">
        <g id="Group_139" data-name="Group 139" transform="translate(-166.26 86.974)" opacity="0.3">
          <g id="Group_138" data-name="Group 138" clip-path="url(#clip-path-11)">
            <g id="Group_137" data-name="Group 137" clip-path="url(#clip-path-11)">
              <path id="Path_284" data-name="Path 284" d="M67.263,18.1C32.185,23.866-25,32.035-29.321,33.957s-6.727,5.766-4.325,17.779a175.386,175.386,0,0,0,5.286,22.1c1.922,6.247,1.922,12.493,19.7,12.013s61.987-4.325,67.273-5.286l6.247-1.922Z" transform="translate(34.607 -18.1)" fill="#fff"/>
            </g>
          </g>
        </g>
        <g id="Group_142" data-name="Group 142" transform="translate(-150.403 165.299)" opacity="0.4">
          <g id="Group_141" data-name="Group 141" clip-path="url(#clip-path-13)">
            <g id="Group_140" data-name="Group 140" clip-path="url(#clip-path-13)">
              <path id="Path_285" data-name="Path 285" d="M51.755,34.4,20.521,43.53C9.469,46.894-11.193,50.738-20.8,53.14s-12.013,13.935-9.61,22.584c0,0,8.649,43.727,10.571,51.416s7.208,14.9,21.623,13.455,34.117-5.286,39.4-8.649S51.755,34.4,51.755,34.4" transform="translate(31.375 -34.4)" fill="#fff"/>
            </g>
          </g>
        </g>
        <g id="Group_145" data-name="Group 145" transform="translate(-129.74 283.987)" opacity="0.5">
          <g id="Group_144" data-name="Group 144" clip-path="url(#clip-path-15)">
            <g id="Group_143" data-name="Group 143" clip-path="url(#clip-path-15)">
              <path id="Path_286" data-name="Path 286" d="M23.643,59.1-19.123,72.555c-10.571,3.364-7.688,13.935-7.208,18.26s2.883,25.468,3.844,29.792,0,11.532,14.416,8.649,23.065-5.286,27.39-11.532S24.124,59.1,24.124,59.1" transform="translate(26.812 -59.1)" fill="#fff"/>
            </g>
          </g>
        </g>
        <g id="Group_148" data-name="Group 148" transform="translate(-124.455 364.234)" opacity="0.6">
          <g id="Group_147" data-name="Group 147" clip-path="url(#clip-path-17)">
            <g id="Group_146" data-name="Group 146" clip-path="url(#clip-path-17)">
              <path id="Path_287" data-name="Path 287" d="M14.331,75.8a90.823,90.823,0,0,1-19.7,9.61c-7.688,2.4-12.013,1.922-14.9,2.883s-6.727,6.727-5.286,16.818a290.24,290.24,0,0,1,.481,33.156,12.013,12.013,0,0,0,4.123,9.806,12.013,12.013,0,0,0,10.292,2.688,83.129,83.129,0,0,0,24.506-6.727c0-.48,0-67.753,0-67.753" transform="translate(26.033 -75.8)" fill="#fff"/>
            </g>
          </g>
        </g>
        <g id="Group_151" data-name="Group 151" transform="translate(-123.013 450.247)" opacity="0.7">
          <g id="Group_150" data-name="Group 150" clip-path="url(#clip-path-19)">
            <g id="Group_149" data-name="Group 149" clip-path="url(#clip-path-19)">
              <path id="Path_288" data-name="Path 288" d="M12.842,93.7a114.847,114.847,0,0,1-26.909,12.013c-6.727,1.922-11.532,3.844-11.532,16.818s0,27.39.481,33.156,0,11.052,11.532,9.13A76.887,76.887,0,0,0,6.595,158.09L9.958,140.31Z" transform="translate(25.6 -93.7)" fill="#fff"/>
            </g>
          </g>
        </g>
        <g id="Group_154" data-name="Group 154" transform="translate(-123.494 533.857)" opacity="0.8">
          <g id="Group_153" data-name="Group 153" clip-path="url(#clip-path-21)">
            <g id="Group_152" data-name="Group 152" clip-path="url(#clip-path-21)">
              <path id="Path_289" data-name="Path 289" d="M3.791,111.1c-2.4,1.442-16.818,5.286-21.623,7.208a9.61,9.61,0,0,0-6.3,4.129,9.61,9.61,0,0,0-1.388,7.4c0,8.169.481,30.273.481,36.519s-1.442,13.455,10.091,10.571A27.87,27.87,0,0,0-.534,169.723Z" transform="translate(25.521 -111.1)" fill="#fff"/>
            </g>
          </g>
        </g>
        <path id="Path_290" data-name="Path 290" d="M-4.541,127c-6.247,3.844-13.935,5.286-16.818,9.61a17.3,17.3,0,0,0-3.364,14.9,55.26,55.26,0,0,0,20.182,27.87c.481,0-.961-27.87-.961-27.87Z" transform="translate(-95.887 483.26)" fill="#fff"/>
        <path id="Path_291" data-name="Path 291" d="M-39.944,19.064c20.662-1.922,55.26-3.364,70.636-3.364s70.156,2.4,74,2.883,8.649,1.922-.961,3.364-51.9,5.286-72.558,5.286-65.351-2.883-73.519-4.805S-39.944,19.064-39.944,19.064Z" transform="translate(-172.926 59.742)" fill="none" stroke="#fff" stroke-miterlimit="10" stroke-width="2.643"/>
        <path id="Path_292" data-name="Path 292" d="M84.522,17.7C63.379,22.025-15.426,27.791-21.673,28.752s-20.182.961-16.818,22.584A374.312,374.312,0,0,0-27.92,95.544c2.4,9.13,9.61,11.532,28.351,7.688s63.909-8.649,69.675-9.61,8.649,2.883.481,4.325L-10.14,110.921c-7.688.961-15.377,3.364-12.974,16.818S-6.3,201.258-5.335,206.544s3.844,16.818,21.143,13.935,40.844-9.13,43.727-9.61l10.091-3.364v4.325s-25.468,7.208-35.558,9.13L15.327,224.8A12.974,12.974,0,0,0,3.314,240.18c1.922,12.013,7.208,47.571,8.169,53.338s3.364,9.13,13.935,7.688a179.711,179.711,0,0,0,31.234-8.649c7.208-3.364,7.688-5.766,7.688-5.766V294l-6.727,3.364A219.6,219.6,0,0,1,28.3,305.531c-6.247.961-14.9,4.805-14.9,14.9,0,0,.961,51.415.961,55.74A9.61,9.61,0,0,0,26.86,386.258a266.225,266.225,0,0,0,29.792-8.169,31.232,31.232,0,0,0,7.688-3.844v5.286l-10.091,3.844c-8.649,2.883-23.065,6.247-26.429,7.208s-13.455.961-12.974,13.455,3.364,51.416,3.364,55.26,0,8.649,10.571,6.247,23.545-5.766,26.909-8.649-.961,5.766-.961,5.766a47.575,47.575,0,0,1-10.571,3.844l-14.9,3.844c-3.844.961-10.091.961-10.091,12.013s.961,49.013,1.442,53.818,1.922,8.169,8.169,7.208,19.7-3.844,21.623-8.169V540.5a25.95,25.95,0,0,1-6.727,3.364c-4.805,1.442-14.416,2.883-18.26,10.091s-3.844,7.688-3.844,19.7S23.5,594.8,34.548,604.414a19.221,19.221,0,0,0,12.974,5.766" transform="translate(-148.431 67.352)" fill="none" stroke="#fff" stroke-miterlimit="10" stroke-width="2.643"/>
        <path id="Path_293" data-name="Path 293" d="M69.432,84.131C58.38,87.014-1.2,92.78-13.217,93.742s-15.377-8.169-16.818-14.9a260.437,260.437,0,0,1-5.286-26.429C-37.243,39.923-33.4,35.6-23.308,32.716S72.315,18.3,72.315,18.3" transform="translate(-136.224 69.635)" fill="none" stroke="#535265" stroke-miterlimit="10" stroke-width="1.345"/>
        <path id="Path_294" data-name="Path 294" d="M56.8,34.3A418.049,418.049,0,0,1-12.879,51.118c-18.74,2.4-20.662,16.818-19.221,26.429s9.13,45.169,11.052,54.779a18.74,18.74,0,0,0,7.643,12.681,18.74,18.74,0,0,0,14.461,3.176,168.666,168.666,0,0,0,43.727-10.091" transform="translate(-123.588 130.518)" fill="none" stroke="#535265" stroke-miterlimit="10" stroke-width="1.345"/>
        <path id="Path_295" data-name="Path 295" d="M27.307,59.1S-18.342,72.555-22.186,74.477s-6.727,6.727-5.766,14.416,4.325,34.117,4.805,40.844,5.286,8.169,14.9,6.727,23.065-1.922,31.234-10.571" transform="translate(-107.073 224.887)" fill="none" stroke="#535265" stroke-miterlimit="10" stroke-width="1.345"/>
        <path id="Path_296" data-name="Path 296" d="M17.715,75.5A60.544,60.544,0,0,1-2.467,86.071L-18.324,90.4c-4.805,1.442-9.13,6.247-8.169,15.377s0,33.156,0,39.4a14.9,14.9,0,0,0,5.034,10.261,14.9,14.9,0,0,0,10.823,3.674c11.052-1.442,22.1-4.325,26.429-8.169" transform="translate(-101.325 287.292)" fill="none" stroke="#535265" stroke-miterlimit="10" stroke-width="1.345"/>
        <path id="Path_297" data-name="Path 297" d="M15.405,93.7a124.934,124.934,0,0,1-31.714,12.974c-9.13,1.922-10.091,9.61-10.091,15.377s.961,40.364.481,43.247,2.883,6.727,9.61,5.766S2.431,167.7,8.2,163.375" transform="translate(-100.457 356.547)" fill="none" stroke="#535265" stroke-miterlimit="10" stroke-width="1.345"/>
        <path id="Path_298" data-name="Path 298" d="M5.414,111.1c-4.325,2.4-20.662,6.247-24.987,8.169a9.13,9.13,0,0,0-6.727,8.649c0,4.805.481,46.13.481,48.532s.481,7.208,6.247,6.727,17.779-2.883,21.143-8.649" transform="translate(-100.077 422.757)" fill="none" stroke="#535265" stroke-miterlimit="10" stroke-width="1.345"/>
        <path id="Path_299" data-name="Path 299" d="M-.052,127c-2.4,2.4-10.571,5.766-14.416,8.169S-25.519,141.9-26,150.065a33.639,33.639,0,0,0,10.094,24.029A172.024,172.024,0,0,0-1.013,187.545" transform="translate(-98.935 483.26)" fill="none" stroke="#535265" stroke-miterlimit="10" stroke-width="1.345"/>
        <path id="Path_300" data-name="Path 300" d="M49.5,126.6a7.688,7.688,0,0,1-1.922,8.649,123.013,123.013,0,0,1-31.234,30.273L-46.6,209.73" transform="translate(-177.322 481.738)" fill="none" stroke="#fff" stroke-miterlimit="10" stroke-width="2.643"/>
        <path id="Path_301" data-name="Path 301" d="M89.725,142.04c-3.844,1.922-12.494,4.805-20.662,7.688L33.985,162.7c-7.208,2.4-46.13,16.338-49.013,16.818s-5.766.961-6.247-5.766a63.91,63.91,0,0,0-4.805-21.143,20.662,20.662,0,0,0-7.208-9.13c-9.61-5.766-15.377-2.883-17.779.961A36.52,36.52,0,0,0-52.508,157.9a2.883,2.883,0,0,0,1.148,2.473,2.883,2.883,0,0,0,2.7.41l22.1-9.13" transform="translate(-200.245 533.57)" fill="none" stroke="#fff" stroke-miterlimit="10" stroke-width="2.643"/>
        <path id="Path_302" data-name="Path 302" d="M-15.913,17.08c0,16.818,1.442,53.338,2.4,59.584s16.338,112.922,18.26,125.9,8.649,60.065,9.13,69.195,3.364,46.13,2.4,60.545,0,60.545.961,68.714S31.658,492.795,33.1,499.522s10.091,39.4-2.4,52.377a70.157,70.157,0,0,1-18.26,16.818l-60.545,38.922a17.3,17.3,0,0,0-4.805,13.935c0,4.805-.48,12.013-.48,14.9a2.4,2.4,0,0,0,1.442,2.4l9.13,4.805S-21.2,654.73-16.874,656.171A47.092,47.092,0,0,0-.056,655.21l35.078-11.052c6.727-2.4,57.662-22.584,59.584-23.545s11.532-4.805,9.61-18.74a168.183,168.183,0,0,1-.961-24.507s5.766-103.312,6.727-110.039,6.247-32.675,6.247-37.961S122,346.717,120.074,322.21s4.805-111.961,6.247-122.052,9.61-70.636,10.571-90.338S140.256,16.6,140.256,16.6" transform="translate(-203.204 63.166)" fill="none" stroke="#fff" stroke-miterlimit="10" stroke-width="2.643"/>
        <path id="Path_303" data-name="Path 303" d="M65.67,13.081S86.813,156.275,87.293,163.964s7.688,54.3,7.208,66.312a420.461,420.461,0,0,0,3.364,47.572c1.442,10.571,9.13,46.61,9.61,57.662s5.286,148.961,5.286,158.091,4.325,51.416-16.818,71.117A408.451,408.451,0,0,1,28.67,611.808L8.968,619.5c-2.883.961-8.169,3.844-2.883,10.571A41.325,41.325,0,0,0,20.02,644a78.325,78.325,0,0,0,37.48,4.325,105.71,105.71,0,0,0,37-12.974,133.107,133.107,0,0,1,41.325-9.61c23.545-2.4,30.273-16.338,29.792-26.909s-4.805-38.442-5.766-42.766-.961-31.714,1.922-41.325,15.857-57.182,17.779-71.117,12.974-75.922,9.61-101.87a534.821,534.821,0,0,1-2.883-74.961c.48-4.805,18.74-104.273,19.221-109.559S220.878,12.6,220.878,12.6" transform="translate(14.577 47.945)" fill="none" stroke="#535265" stroke-miterlimit="10" stroke-width="1.345"/>
        <path id="Path_304" data-name="Path 304" d="M12.991,598.9l46.13-28.831c7.688-4.805,30.753-25.467,33.636-38.922s-3.844-95.623-3.844-95.623L77.381,269.743,59.121,100.12c-6.247-59.584-7.688-72.078-7.688-76.883s0-4.805,5.286-4.805l73.519,1.922c64.39-.961,69.675-3.844,75.442-4.805s9.13-3.364,8.169,9.61-12.974,123.013-15.377,135.026-12.494,86.013-13.455,96.1,1.922,70.156,1.922,78.325-2.883,69.675-12.974,107.636-16.338,72.558-16.338,87.935a289.749,289.749,0,0,0,2.883,50.454c2.883,13.455,4.325,31.234-20.182,40.364l-37,11.532c-9.61,2.883-26.429,10.091-36.039,13.454a139.362,139.362,0,0,1-24.506,5.286c-3.364.481-4.805,0-5.286-6.247S32.693,611.392,25,604.185,5.784,596.5,6.745,608.99" transform="translate(25.45 56.049)" fill="none" stroke="#fff" stroke-miterlimit="10" stroke-width="2.643"/>
        <line id="Line_50" data-name="Line 50" y1="55.26" x2="3.844" transform="translate(154.247 481.48)" fill="none" stroke="#535265" stroke-miterlimit="10" stroke-width="1.97"/>
        <path id="Path_305" data-name="Path 305" d="M47.438,108.93l-1.922,1.442-5.766-7.688-7.208,6.727L31.1,107.969,39.749,99.8Z" transform="translate(118.342 379.758)" fill="#535265"/>
        <line id="Line_51" data-name="Line 51" x1="0.961" y1="56.701" transform="translate(157.61 359.909)" fill="none" stroke="#535265" stroke-miterlimit="10" stroke-width="1.97"/>
        <path id="Path_306" data-name="Path 306" d="M47.057,82.669,45.616,84.11l-6.727-6.727-6.247,7.208L31.2,83.149,38.888,74.5Z" transform="translate(118.722 283.487)" fill="#535265"/>
        <line id="Line_52" data-name="Line 52" x1="0.481" y1="56.701" transform="translate(156.169 230.649)" fill="none" stroke="#535265" stroke-miterlimit="10" stroke-width="1.97"/>
        <path id="Path_307" data-name="Path 307" d="M47.138,56.249,45.7,57.21l-6.727-6.727-6.727,7.208L30.8,56.249,38.969,47.6Z" transform="translate(117.2 181.127)" fill="#535265"/>
        <line id="Line_53" data-name="Line 53" y1="57.182" x2="4.325" transform="translate(151.844 106.675)" fill="none" stroke="#535265" stroke-miterlimit="10" stroke-width="1.97"/>
        <path id="Path_308" data-name="Path 308" d="M47.038,30.93,45.6,32.371l-6.247-7.688L32.142,31.41,30.7,29.969,39.349,21.8Z" transform="translate(116.82 82.953)" fill="#535265"/>
        <path id="Path_309" data-name="Path 309" d="M54.232,75.266A5.766,5.766,0,1,1,48.466,69.5a5.766,5.766,0,0,1,5.766,5.766" transform="translate(162.482 264.461)" fill="#7ccbb6"/>
        <path id="Path_310" data-name="Path 310" d="M54.232,75.266A5.766,5.766,0,1,1,48.466,69.5a5.766,5.766,0,0,1,5.766,5.766Z" transform="translate(162.482 264.461)" fill="none" stroke="#fff" stroke-miterlimit="10" stroke-width="2.21"/>
        <path id="Path_311" data-name="Path 311" d="M32.032,74.466A5.766,5.766,0,1,1,26.266,68.7a5.766,5.766,0,0,1,5.766,5.766" transform="translate(78.006 261.417)" fill="#7ccbb6"/>
        <path id="Path_312" data-name="Path 312" d="M32.032,74.466A5.766,5.766,0,1,1,26.266,68.7,5.766,5.766,0,0,1,32.032,74.466Z" transform="translate(78.006 261.417)" fill="none" stroke="#fff" stroke-miterlimit="10" stroke-width="2.21"/>
      </g>
    </g>
  </g>
</svg>
