<svg xmlns="http://www.w3.org/2000/svg" xmlns:xlink="http://www.w3.org/1999/xlink" width="274.977" height="828.12" viewBox="0 0 274.977 828.12">
  <defs>
    <clipPath id="clip-path">
      <rect id="Rectangle_53" data-name="Rectangle 53" width="274.977" height="828.12" fill="none"/>
    </clipPath>
    <clipPath id="clip-path-2">
      <rect id="Rectangle_46" data-name="Rectangle 46" width="33.828" height="206.402" fill="none"/>
    </clipPath>
    <clipPath id="clip-path-4">
      <rect id="Rectangle_48" data-name="Rectangle 48" width="49.776" height="224.862" fill="none"/>
    </clipPath>
    <clipPath id="clip-path-6">
      <rect id="Rectangle_50" data-name="Rectangle 50" width="15.948" height="202.439" fill="none"/>
    </clipPath>
    <clipPath id="clip-path-8">
      <rect id="Rectangle_52" data-name="Rectangle 52" width="35.761" height="199.056" fill="none"/>
    </clipPath>
    <clipPath id="clip-path-11">
      <rect id="Rectangle_55" data-name="Rectangle 55" width="102.452" height="68.285" fill="none"/>
    </clipPath>
    <clipPath id="clip-path-13">
      <rect id="Rectangle_57" data-name="Rectangle 57" width="83.605" height="106.415" fill="none"/>
    </clipPath>
    <clipPath id="clip-path-15">
      <rect id="Rectangle_59" data-name="Rectangle 59" width="50.743" height="70.895" fill="none"/>
    </clipPath>
    <clipPath id="clip-path-17">
      <rect id="Rectangle_61" data-name="Rectangle 61" width="40.111" height="74.954" fill="none"/>
    </clipPath>
    <clipPath id="clip-path-19">
      <rect id="Rectangle_63" data-name="Rectangle 63" width="38.661" height="71.378" fill="none"/>
    </clipPath>
    <clipPath id="clip-path-21">
      <rect id="Rectangle_65" data-name="Rectangle 65" width="29.479" height="66.545" fill="none"/>
    </clipPath>
  </defs>
  <g id="how-it-works-01" transform="translate(137.488 414.06)">
    <g id="Group_90" data-name="Group 90" transform="translate(-137.488 -414.06)">
      <g id="Group_70" data-name="Group 70" clip-path="url(#clip-path)">
        <g id="Group_60" data-name="Group 60" transform="translate(395.793 70.073)" opacity="0.8">
          <g id="Group_59" data-name="Group 59" clip-path="url(#clip-path-2)">
            <g id="Group_58" data-name="Group 58" clip-path="url(#clip-path-2)">
              <path id="Path_200" data-name="Path 200" d="M84.507,55.2c1.933-11.115.967-41.077,13.048-40.594s7.732,13.048,7.249,20.3c-2.416,25.613,4.349,87.954,7.249,103.418s6.766,53.159.483,68.623-9.182,14.981-13.048,13.531-12.565-45.427-14.015-66.69c-.483-4.349-7.249-61.858-.967-98.586" transform="translate(-82.091 -14.121)" fill="#fff"/>
            </g>
          </g>
        </g>
        <g id="Group_63" data-name="Group 63" transform="translate(463.449 79.255)" opacity="0.8">
          <g id="Group_62" data-name="Group 62" clip-path="url(#clip-path-4)">
            <g id="Group_61" data-name="Group 61" clip-path="url(#clip-path-4)">
              <path id="Path_201" data-name="Path 201" d="M107.4,37.136c2.9-14.015,11.115-24.646,22.713-19.331a29.479,29.479,0,0,1,15.464,21.264c.483,13.048-18.364,117.916-18.847,122.749s-9.182,71.04-9.665,74.906-6.766,8.215-9.665-.967A273.529,273.529,0,0,1,95.8,169.55c0-25.613,1.45-85.538,11.115-132.9" transform="translate(-96.283 -16.356)" fill="#fff"/>
            </g>
          </g>
        </g>
        <g id="Group_66" data-name="Group 66" transform="translate(418.989 376.462)" opacity="0.8">
          <g id="Group_65" data-name="Group 65" clip-path="url(#clip-path-6)">
            <g id="Group_64" data-name="Group 64" clip-path="url(#clip-path-6)">
              <path id="Path_202" data-name="Path 202" d="M86.7,85.726c0-4.833.966-7.249,2.9-7.732s6.282,0,8.7,11.6c6.766,30.929,4.833,127.582,2.416,154.644s-3.866,30.929-4.833,34.312-4.349,2.9-3.866-2.416,0-90.853-.967-114.05-3.866-75.389-3.866-75.389" transform="translate(-86.7 -77.994)" fill="#fff"/>
            </g>
          </g>
        </g>
        <g id="Group_69" data-name="Group 69" transform="translate(453.784 385.644)" opacity="0.8">
          <g id="Group_68" data-name="Group 68" clip-path="url(#clip-path-8)">
            <g id="Group_67" data-name="Group 67" clip-path="url(#clip-path-8)">
              <path id="Path_203" data-name="Path 203" d="M107.314,132.992c1.45-17.4,3.383-42.044,3.866-45.91s3.866-7.732,7.732-7.249a11.115,11.115,0,0,1,10.632,10.632,396.758,396.758,0,0,1-7.249,77.322c-5.316,25.613-15.948,70.073-17.881,78.289A179.767,179.767,0,0,0,99.582,274.1c0,4.833-4.349,7.249-4.833,1.45a241.143,241.143,0,0,1-.483-36.245c1.45-9.182,8.7-48.81,9.665-65.241l2.9-41.077" transform="translate(-94.266 -79.833)" fill="#fff"/>
            </g>
          </g>
        </g>
      </g>
      <line id="Line_28" data-name="Line 28" y1="1.933" x2="19.331" transform="translate(71.523 137.73)" fill="none" stroke="#535265" stroke-miterlimit="10" stroke-width="1.981"/>
      <path id="Path_204" data-name="Path 204" d="M19.516,42.948l-1.45-1.45,6.282-7.249L17.1,28.45,18.067,27l9.665,7.249Z" transform="translate(65.538 103.481)" fill="#535265"/>
      <line id="Line_29" data-name="Line 29" y1="2.9" x2="24.163" transform="translate(86.987 233.899)" fill="none" stroke="#535265" stroke-miterlimit="10" stroke-width="1.981"/>
      <path id="Path_205" data-name="Path 205" d="M24.1,63.331l-1.45-1.45,6.282-7.249L21.2,48.35l.967-1.45,9.665,7.249Z" transform="translate(81.252 179.751)" fill="#535265"/>
      <line id="Line_30" data-name="Line 30" y1="0.967" x2="25.13" transform="translate(100.519 337.801)" fill="none" stroke="#535265" stroke-miterlimit="10" stroke-width="1.981"/>
      <path id="Path_206" data-name="Path 206" d="M26.233,84.248l-1.45-1.45,6.766-6.766L24.3,69.75l1.45-1.45,8.7,7.732Z" transform="translate(93.133 261.769)" fill="#535265"/>
      <line id="Line_31" data-name="Line 31" y1="0.967" x2="31.412" transform="translate(101.485 418.506)" fill="none" stroke="#535265" stroke-miterlimit="10" stroke-width="1.981"/>
      <path id="Path_207" data-name="Path 207" d="M27.733,100.948l-1.45-.967,6.766-7.249L25.8,86.45,27.25,85l8.7,7.732Z" transform="translate(98.882 325.774)" fill="#535265"/>
      <line id="Line_32" data-name="Line 32" x2="28.029" y2="1.45" transform="translate(108.251 503.56)" fill="none" stroke="#535265" stroke-miterlimit="10" stroke-width="1.981"/>
      <path id="Path_208" data-name="Path 208" d="M27.95,119.131l-1.45-1.45,7.249-6.282-6.766-7.249,1.45-1.45,8.7,8.7Z" transform="translate(101.565 393.612)" fill="#535265"/>
      <line id="Line_33" data-name="Line 33" x2="22.23" y2="0.967" transform="translate(120.816 575.567)" fill="none" stroke="#535265" stroke-miterlimit="10" stroke-width="1.981"/>
      <path id="Path_209" data-name="Path 209" d="M28.867,133.548,27.9,132.1l7.249-6.282-6.766-6.766,1.45-1.45,8.215,8.216Z" transform="translate(106.93 450.718)" fill="#535265"/>
      <line id="Line_34" data-name="Line 34" x2="16.431" y2="6.282" transform="translate(117.433 618.577)" fill="none" stroke="#535265" stroke-miterlimit="10" stroke-width="1.981"/>
      <path id="Path_210" data-name="Path 210" d="M26.183,142.281l-.483-1.933,8.7-3.383-4.349-8.7,1.933-.966L37.3,137.932Z" transform="translate(98.499 487.894)" fill="#535265"/>
      <g id="Group_89" data-name="Group 89" clip-path="url(#clip-path)">
        <g id="Group_73" data-name="Group 73" transform="translate(122.749 87.471)" opacity="0.3">
          <g id="Group_72" data-name="Group 72" clip-path="url(#clip-path-11)">
            <g id="Group_71" data-name="Group 71" clip-path="url(#clip-path-11)">
              <path id="Path_211" data-name="Path 211" d="M127.745,18.1C92.466,23.9,34.958,32.115,30.609,34.048s-6.766,5.8-4.349,17.881a176.387,176.387,0,0,0,5.316,22.23c1.933,6.282,1.933,12.565,19.814,12.082s62.341-4.349,67.657-5.316l6.282-1.933Z" transform="translate(-25.776 -18.1)" fill="#fff"/>
            </g>
          </g>
        </g>
        <g id="Group_76" data-name="Group 76" transform="translate(138.697 166.243)" opacity="0.4">
          <g id="Group_75" data-name="Group 75" clip-path="url(#clip-path-13)">
            <g id="Group_74" data-name="Group 74" clip-path="url(#clip-path-13)">
              <path id="Path_212" data-name="Path 212" d="M112.229,34.4,80.817,43.582c-11.115,3.383-31.9,7.249-41.561,9.665S27.175,67.262,29.591,75.961c0,0,8.7,43.977,10.632,51.709S47.472,142.651,61.97,141.2s34.312-5.316,39.628-8.7,10.632-98.1,10.632-98.1" transform="translate(-28.625 -34.4)" fill="#fff"/>
            </g>
          </g>
        </g>
        <g id="Group_79" data-name="Group 79" transform="translate(158.994 285.609)" opacity="0.5">
          <g id="Group_78" data-name="Group 78" clip-path="url(#clip-path-15)">
            <g id="Group_77" data-name="Group 77" clip-path="url(#clip-path-15)">
              <path id="Path_213" data-name="Path 213" d="M83.932,59.1,40.922,72.631C30.29,76.014,33.19,86.646,33.673,91s2.9,25.613,3.866,29.962,0,11.6,14.5,8.7,23.2-5.316,27.546-11.6S84.416,59.1,84.416,59.1" transform="translate(-32.707 -59.1)" fill="#fff"/>
            </g>
          </g>
        </g>
        <g id="Group_82" data-name="Group 82" transform="translate(164.793 366.314)" opacity="0.6">
          <g id="Group_81" data-name="Group 81" clip-path="url(#clip-path-17)">
            <g id="Group_80" data-name="Group 80" clip-path="url(#clip-path-17)">
              <path id="Path_214" data-name="Path 214" d="M74.461,75.8a91.339,91.339,0,0,1-19.814,9.665c-7.732,2.416-12.082,1.933-14.981,2.9S32.9,95.131,34.35,105.279a291.9,291.9,0,0,1,.483,33.345,12.082,12.082,0,0,0,14.5,12.565,83.6,83.6,0,0,0,24.646-6.766V76.283" transform="translate(-34.35 -75.8)" fill="#fff"/>
            </g>
          </g>
        </g>
        <g id="Group_85" data-name="Group 85" transform="translate(166.243 452.818)" opacity="0.7">
          <g id="Group_84" data-name="Group 84" clip-path="url(#clip-path-19)">
            <g id="Group_83" data-name="Group 83" clip-path="url(#clip-path-19)">
              <path id="Path_215" data-name="Path 215" d="M73.061,93.7A115.5,115.5,0,0,1,46,105.782c-6.766,1.933-11.6,3.866-11.6,16.914s0,27.546.483,33.345,0,11.115,11.6,9.182a77.324,77.324,0,0,0,20.3-6.766l3.383-17.881Z" transform="translate(-34.4 -93.7)" fill="#fff"/>
            </g>
          </g>
        </g>
        <g id="Group_88" data-name="Group 88" transform="translate(165.759 536.906)" opacity="0.8">
          <g id="Group_87" data-name="Group 87" clip-path="url(#clip-path-21)">
            <g id="Group_86" data-name="Group 86" clip-path="url(#clip-path-21)">
              <path id="Path_216" data-name="Path 216" d="M63.96,111.1c-2.416,1.45-16.914,5.316-21.747,7.249a9.665,9.665,0,0,0-7.732,11.6c0,8.215.483,30.446.483,36.728s-1.45,13.531,10.149,10.632a28.03,28.03,0,0,0,14.5-7.249Z" transform="translate(-34.48 -111.1)" fill="#fff"/>
            </g>
          </g>
        </g>
        <path id="Path_217" data-name="Path 217" d="M55.577,127c-6.282,3.866-14.015,5.316-16.914,9.665a17.4,17.4,0,0,0-3.383,14.981,55.575,55.575,0,0,0,20.3,28.029c.483,0-.967-28.029-.967-28.029Z" transform="translate(133.379 486.745)" fill="#fff"/>
        <path id="Path_218" data-name="Path 218" d="M19.987,19.083C40.767,17.15,75.562,15.7,91.027,15.7s70.556,2.416,74.423,2.9,8.7,1.933-.967,3.383S112.29,27.3,91.51,27.3s-65.724-2.9-73.939-4.833S19.987,19.083,19.987,19.083Z" transform="translate(55.402 60.172)" fill="none" stroke="#fff" stroke-miterlimit="10" stroke-width="2.658"/>
        <path id="Path_219" data-name="Path 219" d="M145.227,17.7c-21.264,4.349-100.519,10.149-106.8,11.115s-20.3.967-16.914,22.713a375.984,375.984,0,0,0,10.632,44.46c2.416,9.182,9.665,11.6,28.512,7.732s64.274-8.7,70.073-9.665,8.7,2.9.483,4.349L50.024,111.453c-7.732.967-15.464,3.383-13.048,16.914s16.431,73.939,17.4,79.255,3.866,16.914,21.264,14.015,41.077-9.182,43.977-9.665l10.149-3.383v4.349S104.15,220.187,94,222.12l-18.847,3.866a13.048,13.048,0,0,0-12.082,15.464c1.933,12.082,7.249,47.843,8.215,53.642s3.383,9.182,14.015,7.732a180.739,180.739,0,0,0,31.412-8.7c7.249-3.383,7.732-5.8,7.732-5.8v7.249l-6.766,3.383A220.841,220.841,0,0,1,88.2,307.175c-6.282.967-14.981,4.833-14.981,14.981,0,0,.967,51.709.967,56.059a9.665,9.665,0,0,0,12.565,10.149,267.739,267.739,0,0,0,29.962-8.216,31.411,31.411,0,0,0,8.215-3.866V381.6l-10.149,3.866c-8.7,2.9-23.2,6.282-26.579,7.249s-13.531.967-13.048,13.531,3.383,51.709,3.383,55.575,0,8.7,10.632,6.282,23.68-5.8,27.063-8.7-.967,5.8-.967,5.8a47.843,47.843,0,0,1-10.632,3.866l-15.948,4.349c-3.866.967-10.149.967-10.149,12.082s.967,49.293,1.45,54.125,1.933,8.215,8.215,7.249,19.814-3.866,21.747-8.216v5.316a26.091,26.091,0,0,1-6.766,3.383c-4.833,1.45-14.5,2.9-18.364,10.149s-3.866,7.732-3.866,19.814S82.886,598.582,94,608.248a19.33,19.33,0,0,0,13.048,5.8" transform="translate(80.457 67.838)" fill="none" stroke="#fff" stroke-miterlimit="10" stroke-width="2.658"/>
        <path id="Path_220" data-name="Path 220" d="M129.933,84.507c-11.115,2.9-71.04,8.7-83.121,9.665S31.347,85.957,29.9,79.191a261.934,261.934,0,0,1-5.316-26.579C22.648,40.047,26.515,35.7,36.663,32.8s96.169-14.5,96.169-14.5" transform="translate(92.368 70.137)" fill="none" stroke="#535265" stroke-miterlimit="10" stroke-width="1.353"/>
        <path id="Path_221" data-name="Path 221" d="M117.206,34.3A420.434,420.434,0,0,1,47.133,51.214C28.285,53.631,26.352,68.128,27.8,77.794s9.182,45.427,11.115,55.092A18.847,18.847,0,0,0,61.63,148.833a169.628,169.628,0,0,0,43.977-10.149" transform="translate(105.095 131.459)" fill="none" stroke="#535265" stroke-miterlimit="10" stroke-width="1.353"/>
        <path id="Path_222" data-name="Path 222" d="M87.524,59.1S41.614,72.631,37.748,74.081s-6.766,6.766-5.8,14.5,4.349,34.312,4.833,41.077,5.316,8.215,14.981,6.766,23.2-1.933,31.412-10.632" transform="translate(121.729 226.509)" fill="none" stroke="#535265" stroke-miterlimit="10" stroke-width="1.353"/>
        <path id="Path_223" data-name="Path 223" d="M77.968,75.5a60.893,60.893,0,0,1-20.3,10.632L41.723,90.481c-4.833,1.45-9.182,6.282-8.215,15.464s0,33.345,0,39.628a14.981,14.981,0,0,0,15.948,14.015c11.115-1.45,22.23-4.349,26.579-8.215" transform="translate(127.902 289.364)" fill="none" stroke="#535265" stroke-miterlimit="10" stroke-width="1.353"/>
        <path id="Path_224" data-name="Path 224" d="M75.644,93.7a125.648,125.648,0,0,1-31.9,13.048c-9.182,1.933-10.149,9.665-10.149,15.464s.967,40.594.483,43.494,2.9,6.766,9.665,5.8,18.847-3.383,24.646-7.732" transform="translate(128.776 359.118)" fill="none" stroke="#535265" stroke-miterlimit="10" stroke-width="1.353"/>
        <path id="Path_225" data-name="Path 225" d="M65.6,111.1c-4.349,2.416-20.78,6.282-25.13,8.216a9.182,9.182,0,0,0-6.766,8.7c0,4.833.483,46.393.483,48.81s.483,7.249,6.282,6.766,17.881-2.9,21.264-8.7" transform="translate(129.16 425.806)" fill="none" stroke="#535265" stroke-miterlimit="10" stroke-width="1.353"/>
        <path id="Path_226" data-name="Path 226" d="M60,127c-2.416,2.416-10.632,5.8-14.5,8.215S34.383,141.981,33.9,150.2a33.831,33.831,0,0,0,10.152,24.166A172.978,172.978,0,0,0,59.03,187.891" transform="translate(129.926 486.745)" fill="none" stroke="#535265" stroke-miterlimit="10" stroke-width="1.353"/>
        <path id="Path_227" data-name="Path 227" d="M110.053,126.6a7.732,7.732,0,0,1-1.933,8.7,123.715,123.715,0,0,1-31.412,30.446L13.4,210.2" transform="translate(51.357 485.211)" fill="none" stroke="#fff" stroke-miterlimit="10" stroke-width="2.658"/>
        <path id="Path_228" data-name="Path 228" d="M150.438,142.051c-3.866,1.933-12.565,4.833-20.78,7.732L94.38,162.831c-7.249,2.416-46.393,16.431-49.293,16.914s-5.8.967-6.282-5.8a64.274,64.274,0,0,0-4.833-21.264,20.779,20.779,0,0,0-7.249-9.182c-9.665-5.8-15.464-2.9-17.881.967A36.728,36.728,0,0,0,7.392,158a2.9,2.9,0,0,0,3.866,2.9l22.23-9.182" transform="translate(27.886 537.417)" fill="none" stroke="#fff" stroke-miterlimit="10" stroke-width="2.658"/>
        <path id="Path_229" data-name="Path 229" d="M43.818,17.083c0,16.914,1.45,53.642,2.416,59.925S62.665,190.575,64.6,203.623s8.7,60.408,9.182,69.59S77.163,319.606,76.2,334.1s0,60.891.967,69.107,14.5,92.3,15.948,99.069,10.149,39.627-2.416,52.676A70.556,70.556,0,0,1,72.33,571.87L11.922,611.014A17.4,17.4,0,0,0,7.09,625.028c0,4.833-.483,12.081-.483,14.981a2.416,2.416,0,0,0,1.45,2.416l9.182,4.833s21.747,11.115,26.1,12.565a47.36,47.36,0,0,0,16.914-.967l35.278-11.115c6.766-2.416,57.992-22.714,59.925-23.68s11.6-4.833,9.665-18.847a169.155,169.155,0,0,1-.967-24.646s5.8-103.9,6.766-110.667,6.282-32.862,6.282-38.178,5.8-83.121,3.866-107.768,4.833-112.6,6.282-122.749,9.665-71.04,10.632-90.854S201.362,16.6,201.362,16.6" transform="translate(25.289 63.622)" fill="none" stroke="#fff" stroke-miterlimit="10" stroke-width="2.658"/>
        <path id="Path_230" data-name="Path 230" d="M125.923,13.083S147.186,157.1,147.67,164.828s7.732,54.609,7.249,66.69a422.834,422.834,0,0,0,3.383,47.843c1.45,10.632,9.182,46.876,9.665,57.991s5.316,149.812,5.316,158.994,4.349,51.709-16.914,71.523a410.777,410.777,0,0,1-67.657,47.36L68.9,622.961c-2.9.967-8.215,3.866-2.9,10.632a41.561,41.561,0,0,0,14.015,13.048,78.777,78.777,0,0,0,37.695,4.349,106.318,106.318,0,0,0,37.211-13.048,133.854,133.854,0,0,1,41.561-9.665c23.68-2.416,30.446-16.431,29.962-27.063s-4.833-38.661-5.8-43.01-.966-31.9,1.933-41.561,15.948-57.508,17.881-71.523,13.048-76.356,9.665-102.452a537.888,537.888,0,0,1-2.9-75.389c.483-4.833,18.847-104.868,19.33-110.184S282.5,12.6,282.5,12.6" transform="translate(244.257 48.291)" fill="none" stroke="#535265" stroke-miterlimit="10" stroke-width="1.353"/>
        <path id="Path_231" data-name="Path 231" d="M72.927,602.235l46.393-29c7.732-4.833,30.929-25.613,33.828-39.144s-3.866-96.169-3.866-96.169L138.168,271.2,119.8,100.608c-6.282-59.925-7.732-72.49-7.732-77.322s0-4.833,5.316-4.833l73.939,1.933c64.757-.967,70.073-3.866,75.872-4.833s9.182-3.383,8.216,9.665-13.048,123.715-15.465,135.8-13.048,86.021-14.015,96.169,1.933,70.556,1.933,78.772-2.9,70.073-13.048,108.251-16.431,73.456-16.431,88.921a291.412,291.412,0,0,0,2.9,50.742c2.9,13.531,4.349,31.412-20.3,40.594l-37.211,11.6c-9.665,2.9-26.58,10.149-36.245,13.531a140.152,140.152,0,0,1-24.646,5.316c-3.383.483-4.833,0-5.316-6.283S92.741,614.8,85.009,607.551s-19.331-7.732-18.364,4.832" transform="translate(255.208 56.453)" fill="none" stroke="#fff" stroke-miterlimit="10" stroke-width="2.658"/>
        <line id="Line_35" data-name="Line 35" y1="55.575" x2="3.383" transform="translate(445.085 484.23)" fill="none" stroke="#535265" stroke-miterlimit="10" stroke-width="1.981"/>
        <path id="Path_232" data-name="Path 232" d="M107.048,108.982l-1.45,1.45L99.316,102.7l-7.249,6.766-.967-1.45L99.8,99.8Z" transform="translate(349.153 382.497)" fill="#535265"/>
        <line id="Line_36" data-name="Line 36" x1="0.967" y1="57.025" transform="translate(448.468 361.964)" fill="none" stroke="#535265" stroke-miterlimit="10" stroke-width="1.981"/>
        <path id="Path_233" data-name="Path 233" d="M107.531,82.715l-1.45,1.45L99.316,77.4,92.55,84.648,91.1,83.2l8.216-8.7Z" transform="translate(349.153 285.531)" fill="#535265"/>
        <line id="Line_37" data-name="Line 37" x1="0.967" y1="57.025" transform="translate(446.535 231.966)" fill="none" stroke="#535265" stroke-miterlimit="10" stroke-width="1.981"/>
        <path id="Path_234" data-name="Path 234" d="M106.748,56.3l-1.45.967L98.532,50.5,92.25,57.749,90.8,56.3l7.732-8.7Z" transform="translate(348.003 182.433)" fill="#535265"/>
        <line id="Line_38" data-name="Line 38" y1="57.508" x2="4.349" transform="translate(442.669 107.284)" fill="none" stroke="#535265" stroke-miterlimit="10" stroke-width="1.981"/>
        <path id="Path_235" data-name="Path 235" d="M107.131,30.982l-1.933,1.45L99.4,24.7,92.15,31.465l-1.45-1.45L99.4,21.8Z" transform="translate(347.62 83.551)" fill="#535265"/>
        <path id="Path_236" data-name="Path 236" d="M114.2,75.3a5.8,5.8,0,1,1-5.8-5.8,5.8,5.8,0,0,1,5.8,5.8" transform="translate(393.228 266.368)" fill="#7ccbb6"/>
        <path id="Path_237" data-name="Path 237" d="M114.2,75.3a5.8,5.8,0,1,1-5.8-5.8A5.8,5.8,0,0,1,114.2,75.3Z" transform="translate(393.228 266.368)" fill="none" stroke="#fff" stroke-miterlimit="10" stroke-width="2.223"/>
        <path id="Path_238" data-name="Path 238" d="M92,74.5a5.8,5.8,0,1,1-5.8-5.8A5.8,5.8,0,0,1,92,74.5" transform="translate(308.144 263.302)" fill="#7ccbb6"/>
        <path id="Path_239" data-name="Path 239" d="M92,74.5a5.8,5.8,0,1,1-5.8-5.8A5.8,5.8,0,0,1,92,74.5Z" transform="translate(308.144 263.302)" fill="none" stroke="#fff" stroke-miterlimit="10" stroke-width="2.223"/>
      </g>
    </g>
  </g>
</svg>
