<svg id="Illustrations" xmlns="http://www.w3.org/2000/svg" xmlns:xlink="http://www.w3.org/1999/xlink" width="520" height="942.441" viewBox="0 0 520 942.441">
  <defs>
    <clipPath id="clip-path">
      <rect id="Rectangle_53" data-name="Rectangle 53" width="274.977" height="828.12" fill="none"/>
    </clipPath>
    <clipPath id="clip-path-2">
      <rect id="Rectangle_46" data-name="Rectangle 46" width="33.828" height="206.402" fill="none"/>
    </clipPath>
    <clipPath id="clip-path-4">
      <rect id="Rectangle_48" data-name="Rectangle 48" width="49.776" height="224.862" fill="none"/>
    </clipPath>
    <clipPath id="clip-path-6">
      <rect id="Rectangle_50" data-name="Rectangle 50" width="15.948" height="202.439" fill="none"/>
    </clipPath>
    <clipPath id="clip-path-8">
      <rect id="Rectangle_52" data-name="Rectangle 52" width="35.761" height="199.056" fill="none"/>
    </clipPath>
    <clipPath id="clip-path-11">
      <rect id="Rectangle_55" data-name="Rectangle 55" width="102.452" height="68.285" fill="none"/>
    </clipPath>
    <clipPath id="clip-path-13">
      <rect id="Rectangle_57" data-name="Rectangle 57" width="83.605" height="106.415" fill="none"/>
    </clipPath>
    <clipPath id="clip-path-15">
      <rect id="Rectangle_59" data-name="Rectangle 59" width="50.743" height="70.895" fill="none"/>
    </clipPath>
    <clipPath id="clip-path-17">
      <rect id="Rectangle_61" data-name="Rectangle 61" width="40.111" height="74.954" fill="none"/>
    </clipPath>
    <clipPath id="clip-path-19">
      <rect id="Rectangle_63" data-name="Rectangle 63" width="38.661" height="71.378" fill="none"/>
    </clipPath>
    <clipPath id="clip-path-21">
      <rect id="Rectangle_65" data-name="Rectangle 65" width="29.479" height="66.545" fill="none"/>
    </clipPath>
    <clipPath id="clip-path-23">
      <rect id="Rectangle_97" data-name="Rectangle 97" width="296" height="823.418" fill="none"/>
    </clipPath>
    <clipPath id="clip-path-24">
      <rect id="Rectangle_90" data-name="Rectangle 90" width="33.636" height="205.23" fill="none"/>
    </clipPath>
    <clipPath id="clip-path-26">
      <rect id="Rectangle_92" data-name="Rectangle 92" width="49.494" height="223.586" fill="none"/>
    </clipPath>
    <clipPath id="clip-path-28">
      <rect id="Rectangle_94" data-name="Rectangle 94" width="15.857" height="201.29" fill="none"/>
    </clipPath>
    <clipPath id="clip-path-30">
      <rect id="Rectangle_96" data-name="Rectangle 96" width="35.558" height="197.926" fill="none"/>
    </clipPath>
    <clipPath id="clip-path-33">
      <rect id="Rectangle_99" data-name="Rectangle 99" width="101.87" height="67.897" fill="none"/>
    </clipPath>
    <clipPath id="clip-path-35">
      <rect id="Rectangle_101" data-name="Rectangle 101" width="83.13" height="105.81" fill="none"/>
    </clipPath>
    <clipPath id="clip-path-37">
      <rect id="Rectangle_103" data-name="Rectangle 103" width="50.455" height="70.492" fill="none"/>
    </clipPath>
    <clipPath id="clip-path-39">
      <rect id="Rectangle_105" data-name="Rectangle 105" width="39.883" height="74.529" fill="none"/>
    </clipPath>
    <clipPath id="clip-path-41">
      <rect id="Rectangle_107" data-name="Rectangle 107" width="38.442" height="70.973" fill="none"/>
    </clipPath>
    <clipPath id="clip-path-43">
      <rect id="Rectangle_109" data-name="Rectangle 109" width="29.312" height="66.168" fill="none"/>
    </clipPath>
  </defs>
  <g id="how-it-works-01" transform="translate(382.512 528.381)">
    <g id="Group_90" data-name="Group 90" transform="translate(-137.488 -414.06)">
      <g id="Group_70" data-name="Group 70" clip-path="url(#clip-path)">
        <g id="Group_60" data-name="Group 60" transform="translate(395.793 70.073)" opacity="0.8">
          <g id="Group_59" data-name="Group 59" clip-path="url(#clip-path-2)">
            <g id="Group_58" data-name="Group 58" clip-path="url(#clip-path-2)">
              <path id="Path_200" data-name="Path 200" d="M84.507,55.2c1.933-11.115.967-41.077,13.048-40.594s7.732,13.048,7.249,20.3c-2.416,25.613,4.349,87.954,7.249,103.418s6.766,53.159.483,68.623-9.182,14.981-13.048,13.531-12.565-45.427-14.015-66.69c-.483-4.349-7.249-61.858-.967-98.586" transform="translate(-82.091 -14.121)" fill="#fff"/>
            </g>
          </g>
        </g>
        <g id="Group_63" data-name="Group 63" transform="translate(463.449 79.255)" opacity="0.8">
          <g id="Group_62" data-name="Group 62" clip-path="url(#clip-path-4)">
            <g id="Group_61" data-name="Group 61" clip-path="url(#clip-path-4)">
              <path id="Path_201" data-name="Path 201" d="M107.4,37.136c2.9-14.015,11.115-24.646,22.713-19.331a29.479,29.479,0,0,1,15.464,21.264c.483,13.048-18.364,117.916-18.847,122.749s-9.182,71.04-9.665,74.906-6.766,8.215-9.665-.967A273.529,273.529,0,0,1,95.8,169.55c0-25.613,1.45-85.538,11.115-132.9" transform="translate(-96.283 -16.356)" fill="#fff"/>
            </g>
          </g>
        </g>
        <g id="Group_66" data-name="Group 66" transform="translate(418.989 376.462)" opacity="0.8">
          <g id="Group_65" data-name="Group 65" clip-path="url(#clip-path-6)">
            <g id="Group_64" data-name="Group 64" clip-path="url(#clip-path-6)">
              <path id="Path_202" data-name="Path 202" d="M86.7,85.726c0-4.833.966-7.249,2.9-7.732s6.282,0,8.7,11.6c6.766,30.929,4.833,127.582,2.416,154.644s-3.866,30.929-4.833,34.312-4.349,2.9-3.866-2.416,0-90.853-.967-114.05-3.866-75.389-3.866-75.389" transform="translate(-86.7 -77.994)" fill="#fff"/>
            </g>
          </g>
        </g>
        <g id="Group_69" data-name="Group 69" transform="translate(453.784 385.644)" opacity="0.8">
          <g id="Group_68" data-name="Group 68" clip-path="url(#clip-path-8)">
            <g id="Group_67" data-name="Group 67" clip-path="url(#clip-path-8)">
              <path id="Path_203" data-name="Path 203" d="M107.314,132.992c1.45-17.4,3.383-42.044,3.866-45.91s3.866-7.732,7.732-7.249a11.115,11.115,0,0,1,10.632,10.632,396.758,396.758,0,0,1-7.249,77.322c-5.316,25.613-15.948,70.073-17.881,78.289A179.767,179.767,0,0,0,99.582,274.1c0,4.833-4.349,7.249-4.833,1.45a241.143,241.143,0,0,1-.483-36.245c1.45-9.182,8.7-48.81,9.665-65.241l2.9-41.077" transform="translate(-94.266 -79.833)" fill="#fff"/>
            </g>
          </g>
        </g>
      </g>
      <line id="Line_28" data-name="Line 28" y1="1.933" x2="19.331" transform="translate(71.523 137.73)" fill="none" stroke="#535265" stroke-miterlimit="10" stroke-width="1.981"/>
      <path id="Path_204" data-name="Path 204" d="M19.516,42.948l-1.45-1.45,6.282-7.249L17.1,28.45,18.067,27l9.665,7.249Z" transform="translate(65.538 103.481)" fill="#535265"/>
      <line id="Line_29" data-name="Line 29" y1="2.9" x2="24.163" transform="translate(86.987 233.899)" fill="none" stroke="#535265" stroke-miterlimit="10" stroke-width="1.981"/>
      <path id="Path_205" data-name="Path 205" d="M24.1,63.331l-1.45-1.45,6.282-7.249L21.2,48.35l.967-1.45,9.665,7.249Z" transform="translate(81.252 179.751)" fill="#535265"/>
      <line id="Line_30" data-name="Line 30" y1="0.967" x2="25.13" transform="translate(100.519 337.801)" fill="none" stroke="#535265" stroke-miterlimit="10" stroke-width="1.981"/>
      <path id="Path_206" data-name="Path 206" d="M26.233,84.248l-1.45-1.45,6.766-6.766L24.3,69.75l1.45-1.45,8.7,7.732Z" transform="translate(93.133 261.769)" fill="#535265"/>
      <line id="Line_31" data-name="Line 31" y1="0.967" x2="31.412" transform="translate(101.485 418.506)" fill="none" stroke="#535265" stroke-miterlimit="10" stroke-width="1.981"/>
      <path id="Path_207" data-name="Path 207" d="M27.733,100.948l-1.45-.967,6.766-7.249L25.8,86.45,27.25,85l8.7,7.732Z" transform="translate(98.882 325.774)" fill="#535265"/>
      <line id="Line_32" data-name="Line 32" x2="28.029" y2="1.45" transform="translate(108.251 503.56)" fill="none" stroke="#535265" stroke-miterlimit="10" stroke-width="1.981"/>
      <path id="Path_208" data-name="Path 208" d="M27.95,119.131l-1.45-1.45,7.249-6.282-6.766-7.249,1.45-1.45,8.7,8.7Z" transform="translate(101.565 393.612)" fill="#535265"/>
      <line id="Line_33" data-name="Line 33" x2="22.23" y2="0.967" transform="translate(120.816 575.567)" fill="none" stroke="#535265" stroke-miterlimit="10" stroke-width="1.981"/>
      <path id="Path_209" data-name="Path 209" d="M28.867,133.548,27.9,132.1l7.249-6.282-6.766-6.766,1.45-1.45,8.215,8.216Z" transform="translate(106.93 450.718)" fill="#535265"/>
      <line id="Line_34" data-name="Line 34" x2="16.431" y2="6.282" transform="translate(117.433 618.577)" fill="none" stroke="#535265" stroke-miterlimit="10" stroke-width="1.981"/>
      <path id="Path_210" data-name="Path 210" d="M26.183,142.281l-.483-1.933,8.7-3.383-4.349-8.7,1.933-.966L37.3,137.932Z" transform="translate(98.499 487.894)" fill="#535265"/>
      <g id="Group_89" data-name="Group 89" clip-path="url(#clip-path)">
        <g id="Group_73" data-name="Group 73" transform="translate(122.749 87.471)" opacity="0.3">
          <g id="Group_72" data-name="Group 72" clip-path="url(#clip-path-11)">
            <g id="Group_71" data-name="Group 71" clip-path="url(#clip-path-11)">
              <path id="Path_211" data-name="Path 211" d="M127.745,18.1C92.466,23.9,34.958,32.115,30.609,34.048s-6.766,5.8-4.349,17.881a176.387,176.387,0,0,0,5.316,22.23c1.933,6.282,1.933,12.565,19.814,12.082s62.341-4.349,67.657-5.316l6.282-1.933Z" transform="translate(-25.776 -18.1)" fill="#fff"/>
            </g>
          </g>
        </g>
        <g id="Group_76" data-name="Group 76" transform="translate(138.697 166.243)" opacity="0.4">
          <g id="Group_75" data-name="Group 75" clip-path="url(#clip-path-13)">
            <g id="Group_74" data-name="Group 74" clip-path="url(#clip-path-13)">
              <path id="Path_212" data-name="Path 212" d="M112.229,34.4,80.817,43.582c-11.115,3.383-31.9,7.249-41.561,9.665S27.175,67.262,29.591,75.961c0,0,8.7,43.977,10.632,51.709S47.472,142.651,61.97,141.2s34.312-5.316,39.628-8.7,10.632-98.1,10.632-98.1" transform="translate(-28.625 -34.4)" fill="#fff"/>
            </g>
          </g>
        </g>
        <g id="Group_79" data-name="Group 79" transform="translate(158.994 285.609)" opacity="0.5">
          <g id="Group_78" data-name="Group 78" clip-path="url(#clip-path-15)">
            <g id="Group_77" data-name="Group 77" clip-path="url(#clip-path-15)">
              <path id="Path_213" data-name="Path 213" d="M83.932,59.1,40.922,72.631C30.29,76.014,33.19,86.646,33.673,91s2.9,25.613,3.866,29.962,0,11.6,14.5,8.7,23.2-5.316,27.546-11.6S84.416,59.1,84.416,59.1" transform="translate(-32.707 -59.1)" fill="#fff"/>
            </g>
          </g>
        </g>
        <g id="Group_82" data-name="Group 82" transform="translate(164.793 366.314)" opacity="0.6">
          <g id="Group_81" data-name="Group 81" clip-path="url(#clip-path-17)">
            <g id="Group_80" data-name="Group 80" clip-path="url(#clip-path-17)">
              <path id="Path_214" data-name="Path 214" d="M74.461,75.8a91.339,91.339,0,0,1-19.814,9.665c-7.732,2.416-12.082,1.933-14.981,2.9S32.9,95.131,34.35,105.279a291.9,291.9,0,0,1,.483,33.345,12.082,12.082,0,0,0,14.5,12.565,83.6,83.6,0,0,0,24.646-6.766V76.283" transform="translate(-34.35 -75.8)" fill="#fff"/>
            </g>
          </g>
        </g>
        <g id="Group_85" data-name="Group 85" transform="translate(166.243 452.818)" opacity="0.7">
          <g id="Group_84" data-name="Group 84" clip-path="url(#clip-path-19)">
            <g id="Group_83" data-name="Group 83" clip-path="url(#clip-path-19)">
              <path id="Path_215" data-name="Path 215" d="M73.061,93.7A115.5,115.5,0,0,1,46,105.782c-6.766,1.933-11.6,3.866-11.6,16.914s0,27.546.483,33.345,0,11.115,11.6,9.182a77.324,77.324,0,0,0,20.3-6.766l3.383-17.881Z" transform="translate(-34.4 -93.7)" fill="#fff"/>
            </g>
          </g>
        </g>
        <g id="Group_88" data-name="Group 88" transform="translate(165.759 536.906)" opacity="0.8">
          <g id="Group_87" data-name="Group 87" clip-path="url(#clip-path-21)">
            <g id="Group_86" data-name="Group 86" clip-path="url(#clip-path-21)">
              <path id="Path_216" data-name="Path 216" d="M63.96,111.1c-2.416,1.45-16.914,5.316-21.747,7.249a9.665,9.665,0,0,0-7.732,11.6c0,8.215.483,30.446.483,36.728s-1.45,13.531,10.149,10.632a28.03,28.03,0,0,0,14.5-7.249Z" transform="translate(-34.48 -111.1)" fill="#fff"/>
            </g>
          </g>
        </g>
        <path id="Path_217" data-name="Path 217" d="M55.577,127c-6.282,3.866-14.015,5.316-16.914,9.665a17.4,17.4,0,0,0-3.383,14.981,55.575,55.575,0,0,0,20.3,28.029c.483,0-.967-28.029-.967-28.029Z" transform="translate(133.379 486.745)" fill="#fff"/>
        <path id="Path_218" data-name="Path 218" d="M19.987,19.083C40.767,17.15,75.562,15.7,91.027,15.7s70.556,2.416,74.423,2.9,8.7,1.933-.967,3.383S112.29,27.3,91.51,27.3s-65.724-2.9-73.939-4.833S19.987,19.083,19.987,19.083Z" transform="translate(55.402 60.172)" fill="none" stroke="#fff" stroke-miterlimit="10" stroke-width="2.658"/>
        <path id="Path_219" data-name="Path 219" d="M145.227,17.7c-21.264,4.349-100.519,10.149-106.8,11.115s-20.3.967-16.914,22.713a375.984,375.984,0,0,0,10.632,44.46c2.416,9.182,9.665,11.6,28.512,7.732s64.274-8.7,70.073-9.665,8.7,2.9.483,4.349L50.024,111.453c-7.732.967-15.464,3.383-13.048,16.914s16.431,73.939,17.4,79.255,3.866,16.914,21.264,14.015,41.077-9.182,43.977-9.665l10.149-3.383v4.349S104.15,220.187,94,222.12l-18.847,3.866a13.048,13.048,0,0,0-12.082,15.464c1.933,12.082,7.249,47.843,8.215,53.642s3.383,9.182,14.015,7.732a180.739,180.739,0,0,0,31.412-8.7c7.249-3.383,7.732-5.8,7.732-5.8v7.249l-6.766,3.383A220.841,220.841,0,0,1,88.2,307.175c-6.282.967-14.981,4.833-14.981,14.981,0,0,.967,51.709.967,56.059a9.665,9.665,0,0,0,12.565,10.149,267.739,267.739,0,0,0,29.962-8.216,31.411,31.411,0,0,0,8.215-3.866V381.6l-10.149,3.866c-8.7,2.9-23.2,6.282-26.579,7.249s-13.531.967-13.048,13.531,3.383,51.709,3.383,55.575,0,8.7,10.632,6.282,23.68-5.8,27.063-8.7-.967,5.8-.967,5.8a47.843,47.843,0,0,1-10.632,3.866l-15.948,4.349c-3.866.967-10.149.967-10.149,12.082s.967,49.293,1.45,54.125,1.933,8.215,8.215,7.249,19.814-3.866,21.747-8.216v5.316a26.091,26.091,0,0,1-6.766,3.383c-4.833,1.45-14.5,2.9-18.364,10.149s-3.866,7.732-3.866,19.814S82.886,598.582,94,608.248a19.33,19.33,0,0,0,13.048,5.8" transform="translate(80.457 67.838)" fill="none" stroke="#fff" stroke-miterlimit="10" stroke-width="2.658"/>
        <path id="Path_220" data-name="Path 220" d="M129.933,84.507c-11.115,2.9-71.04,8.7-83.121,9.665S31.347,85.957,29.9,79.191a261.934,261.934,0,0,1-5.316-26.579C22.648,40.047,26.515,35.7,36.663,32.8s96.169-14.5,96.169-14.5" transform="translate(92.368 70.137)" fill="none" stroke="#535265" stroke-miterlimit="10" stroke-width="1.353"/>
        <path id="Path_221" data-name="Path 221" d="M117.206,34.3A420.434,420.434,0,0,1,47.133,51.214C28.285,53.631,26.352,68.128,27.8,77.794s9.182,45.427,11.115,55.092A18.847,18.847,0,0,0,61.63,148.833a169.628,169.628,0,0,0,43.977-10.149" transform="translate(105.095 131.459)" fill="none" stroke="#535265" stroke-miterlimit="10" stroke-width="1.353"/>
        <path id="Path_222" data-name="Path 222" d="M87.524,59.1S41.614,72.631,37.748,74.081s-6.766,6.766-5.8,14.5,4.349,34.312,4.833,41.077,5.316,8.215,14.981,6.766,23.2-1.933,31.412-10.632" transform="translate(121.729 226.509)" fill="none" stroke="#535265" stroke-miterlimit="10" stroke-width="1.353"/>
        <path id="Path_223" data-name="Path 223" d="M77.968,75.5a60.893,60.893,0,0,1-20.3,10.632L41.723,90.481c-4.833,1.45-9.182,6.282-8.215,15.464s0,33.345,0,39.628a14.981,14.981,0,0,0,15.948,14.015c11.115-1.45,22.23-4.349,26.579-8.215" transform="translate(127.902 289.364)" fill="none" stroke="#535265" stroke-miterlimit="10" stroke-width="1.353"/>
        <path id="Path_224" data-name="Path 224" d="M75.644,93.7a125.648,125.648,0,0,1-31.9,13.048c-9.182,1.933-10.149,9.665-10.149,15.464s.967,40.594.483,43.494,2.9,6.766,9.665,5.8,18.847-3.383,24.646-7.732" transform="translate(128.776 359.118)" fill="none" stroke="#535265" stroke-miterlimit="10" stroke-width="1.353"/>
        <path id="Path_225" data-name="Path 225" d="M65.6,111.1c-4.349,2.416-20.78,6.282-25.13,8.216a9.182,9.182,0,0,0-6.766,8.7c0,4.833.483,46.393.483,48.81s.483,7.249,6.282,6.766,17.881-2.9,21.264-8.7" transform="translate(129.16 425.806)" fill="none" stroke="#535265" stroke-miterlimit="10" stroke-width="1.353"/>
        <path id="Path_226" data-name="Path 226" d="M60,127c-2.416,2.416-10.632,5.8-14.5,8.215S34.383,141.981,33.9,150.2a33.831,33.831,0,0,0,10.152,24.166A172.978,172.978,0,0,0,59.03,187.891" transform="translate(129.926 486.745)" fill="none" stroke="#535265" stroke-miterlimit="10" stroke-width="1.353"/>
        <path id="Path_227" data-name="Path 227" d="M110.053,126.6a7.732,7.732,0,0,1-1.933,8.7,123.715,123.715,0,0,1-31.412,30.446L13.4,210.2" transform="translate(51.357 485.211)" fill="none" stroke="#fff" stroke-miterlimit="10" stroke-width="2.658"/>
        <path id="Path_228" data-name="Path 228" d="M150.438,142.051c-3.866,1.933-12.565,4.833-20.78,7.732L94.38,162.831c-7.249,2.416-46.393,16.431-49.293,16.914s-5.8.967-6.282-5.8a64.274,64.274,0,0,0-4.833-21.264,20.779,20.779,0,0,0-7.249-9.182c-9.665-5.8-15.464-2.9-17.881.967A36.728,36.728,0,0,0,7.392,158a2.9,2.9,0,0,0,3.866,2.9l22.23-9.182" transform="translate(27.886 537.417)" fill="none" stroke="#fff" stroke-miterlimit="10" stroke-width="2.658"/>
        <path id="Path_229" data-name="Path 229" d="M43.818,17.083c0,16.914,1.45,53.642,2.416,59.925S62.665,190.575,64.6,203.623s8.7,60.408,9.182,69.59S77.163,319.606,76.2,334.1s0,60.891.967,69.107,14.5,92.3,15.948,99.069,10.149,39.627-2.416,52.676A70.556,70.556,0,0,1,72.33,571.87L11.922,611.014A17.4,17.4,0,0,0,7.09,625.028c0,4.833-.483,12.081-.483,14.981a2.416,2.416,0,0,0,1.45,2.416l9.182,4.833s21.747,11.115,26.1,12.565a47.36,47.36,0,0,0,16.914-.967l35.278-11.115c6.766-2.416,57.992-22.714,59.925-23.68s11.6-4.833,9.665-18.847a169.155,169.155,0,0,1-.967-24.646s5.8-103.9,6.766-110.667,6.282-32.862,6.282-38.178,5.8-83.121,3.866-107.768,4.833-112.6,6.282-122.749,9.665-71.04,10.632-90.854S201.362,16.6,201.362,16.6" transform="translate(25.289 63.622)" fill="none" stroke="#fff" stroke-miterlimit="10" stroke-width="2.658"/>
        <path id="Path_230" data-name="Path 230" d="M125.923,13.083S147.186,157.1,147.67,164.828s7.732,54.609,7.249,66.69a422.834,422.834,0,0,0,3.383,47.843c1.45,10.632,9.182,46.876,9.665,57.991s5.316,149.812,5.316,158.994,4.349,51.709-16.914,71.523a410.777,410.777,0,0,1-67.657,47.36L68.9,622.961c-2.9.967-8.215,3.866-2.9,10.632a41.561,41.561,0,0,0,14.015,13.048,78.777,78.777,0,0,0,37.695,4.349,106.318,106.318,0,0,0,37.211-13.048,133.854,133.854,0,0,1,41.561-9.665c23.68-2.416,30.446-16.431,29.962-27.063s-4.833-38.661-5.8-43.01-.966-31.9,1.933-41.561,15.948-57.508,17.881-71.523,13.048-76.356,9.665-102.452a537.888,537.888,0,0,1-2.9-75.389c.483-4.833,18.847-104.868,19.33-110.184S282.5,12.6,282.5,12.6" transform="translate(244.257 48.291)" fill="none" stroke="#535265" stroke-miterlimit="10" stroke-width="1.353"/>
        <path id="Path_231" data-name="Path 231" d="M72.927,602.235l46.393-29c7.732-4.833,30.929-25.613,33.828-39.144s-3.866-96.169-3.866-96.169L138.168,271.2,119.8,100.608c-6.282-59.925-7.732-72.49-7.732-77.322s0-4.833,5.316-4.833l73.939,1.933c64.757-.967,70.073-3.866,75.872-4.833s9.182-3.383,8.216,9.665-13.048,123.715-15.465,135.8-13.048,86.021-14.015,96.169,1.933,70.556,1.933,78.772-2.9,70.073-13.048,108.251-16.431,73.456-16.431,88.921a291.412,291.412,0,0,0,2.9,50.742c2.9,13.531,4.349,31.412-20.3,40.594l-37.211,11.6c-9.665,2.9-26.58,10.149-36.245,13.531a140.152,140.152,0,0,1-24.646,5.316c-3.383.483-4.833,0-5.316-6.283S92.741,614.8,85.009,607.551s-19.331-7.732-18.364,4.832" transform="translate(255.208 56.453)" fill="none" stroke="#fff" stroke-miterlimit="10" stroke-width="2.658"/>
        <line id="Line_35" data-name="Line 35" y1="55.575" x2="3.383" transform="translate(445.085 484.23)" fill="none" stroke="#535265" stroke-miterlimit="10" stroke-width="1.981"/>
        <path id="Path_232" data-name="Path 232" d="M107.048,108.982l-1.45,1.45L99.316,102.7l-7.249,6.766-.967-1.45L99.8,99.8Z" transform="translate(349.153 382.497)" fill="#535265"/>
        <line id="Line_36" data-name="Line 36" x1="0.967" y1="57.025" transform="translate(448.468 361.964)" fill="none" stroke="#535265" stroke-miterlimit="10" stroke-width="1.981"/>
        <path id="Path_233" data-name="Path 233" d="M107.531,82.715l-1.45,1.45L99.316,77.4,92.55,84.648,91.1,83.2l8.216-8.7Z" transform="translate(349.153 285.531)" fill="#535265"/>
        <line id="Line_37" data-name="Line 37" x1="0.967" y1="57.025" transform="translate(446.535 231.966)" fill="none" stroke="#535265" stroke-miterlimit="10" stroke-width="1.981"/>
        <path id="Path_234" data-name="Path 234" d="M106.748,56.3l-1.45.967L98.532,50.5,92.25,57.749,90.8,56.3l7.732-8.7Z" transform="translate(348.003 182.433)" fill="#535265"/>
        <line id="Line_38" data-name="Line 38" y1="57.508" x2="4.349" transform="translate(442.669 107.284)" fill="none" stroke="#535265" stroke-miterlimit="10" stroke-width="1.981"/>
        <path id="Path_235" data-name="Path 235" d="M107.131,30.982l-1.933,1.45L99.4,24.7,92.15,31.465l-1.45-1.45L99.4,21.8Z" transform="translate(347.62 83.551)" fill="#535265"/>
        <path id="Path_236" data-name="Path 236" d="M114.2,75.3a5.8,5.8,0,1,1-5.8-5.8,5.8,5.8,0,0,1,5.8,5.8" transform="translate(393.228 266.368)" fill="#7ccbb6"/>
        <path id="Path_237" data-name="Path 237" d="M114.2,75.3a5.8,5.8,0,1,1-5.8-5.8A5.8,5.8,0,0,1,114.2,75.3Z" transform="translate(393.228 266.368)" fill="none" stroke="#fff" stroke-miterlimit="10" stroke-width="2.223"/>
        <path id="Path_238" data-name="Path 238" d="M92,74.5a5.8,5.8,0,1,1-5.8-5.8A5.8,5.8,0,0,1,92,74.5" transform="translate(308.144 263.302)" fill="#7ccbb6"/>
        <path id="Path_239" data-name="Path 239" d="M92,74.5a5.8,5.8,0,1,1-5.8-5.8A5.8,5.8,0,0,1,92,74.5Z" transform="translate(308.144 263.302)" fill="none" stroke="#fff" stroke-miterlimit="10" stroke-width="2.223"/>
      </g>
    </g>
  </g>
  <g id="how-it-works-02" transform="translate(148 411.709)">
    <g id="Group_156" data-name="Group 156" transform="translate(-148 -411.709)">
      <g id="Group_136" data-name="Group 136" clip-path="url(#clip-path-23)">
        <g id="Group_126" data-name="Group 126" transform="translate(105.234 69.675)" opacity="0.8">
          <g id="Group_125" data-name="Group 125" clip-path="url(#clip-path-24)">
            <g id="Group_124" data-name="Group 124" clip-path="url(#clip-path-24)">
              <path id="Path_280" data-name="Path 280" d="M24.492,54.968c1.922-11.052.961-40.844,12.974-40.364s7.688,12.974,7.208,20.182c-2.4,25.468,4.325,87.455,7.208,102.831s6.727,52.857.481,68.234-9.13,14.9-12.974,13.455-12.494-45.169-13.935-66.312c-.481-4.325-7.208-61.506-.961-98.026" transform="translate(-22.09 -14.124)" fill="#fff"/>
            </g>
          </g>
        </g>
        <g id="Group_129" data-name="Group 129" transform="translate(172.507 78.805)" opacity="0.8">
          <g id="Group_128" data-name="Group 128" clip-path="url(#clip-path-26)">
            <g id="Group_127" data-name="Group 127" clip-path="url(#clip-path-26)">
              <path id="Path_281" data-name="Path 281" d="M47.332,37.018C50.216,23.083,58.384,12.512,69.917,17.8A29.312,29.312,0,0,1,85.293,38.94c.481,12.974-18.26,117.247-18.74,122.052s-9.13,70.636-9.61,74.48-6.727,8.169-9.61-.961A271.975,271.975,0,0,1,35.8,168.681c0-25.468,1.442-85.052,11.052-132.143" transform="translate(-36.281 -16.356)" fill="#fff"/>
            </g>
          </g>
        </g>
        <g id="Group_132" data-name="Group 132" transform="translate(128.779 374.325)" opacity="0.8">
          <g id="Group_131" data-name="Group 131" clip-path="url(#clip-path-28)">
            <g id="Group_130" data-name="Group 130" clip-path="url(#clip-path-28)">
              <path id="Path_282" data-name="Path 282" d="M26.8,85.682c0-4.805.961-7.208,2.883-7.688s6.247,0,8.649,11.532c6.727,30.753,4.805,126.857,2.4,153.766s-3.844,30.753-4.805,34.117-4.325,2.883-3.844-2.4,0-90.338-.961-113.4-3.844-74.961-3.844-74.961" transform="translate(-26.8 -77.993)" fill="#fff"/>
            </g>
          </g>
        </g>
        <g id="Group_135" data-name="Group 135" transform="translate(162.896 383.455)" opacity="0.8">
          <g id="Group_134" data-name="Group 134" clip-path="url(#clip-path-30)">
            <g id="Group_133" data-name="Group 133" clip-path="url(#clip-path-30)">
              <path id="Path_283" data-name="Path 283" d="M47.338,132.689c1.442-17.3,3.364-41.805,3.844-45.649s3.844-7.688,7.688-7.208A11.052,11.052,0,0,1,69.441,90.4a394.51,394.51,0,0,1-7.208,76.883c-5.286,25.467-15.857,69.675-17.779,77.844A178.75,178.75,0,0,0,39.649,273c0,4.805-4.325,7.208-4.805,1.442a239.783,239.783,0,0,1-.48-36.039c1.442-9.13,8.649-48.533,9.61-64.87l2.883-40.844" transform="translate(-33.883 -79.832)" fill="#fff"/>
            </g>
          </g>
        </g>
      </g>
      <g id="Group_155" data-name="Group 155" clip-path="url(#clip-path-23)">
        <g id="Group_139" data-name="Group 139" transform="translate(-166.26 86.974)" opacity="0.3">
          <g id="Group_138" data-name="Group 138" clip-path="url(#clip-path-33)">
            <g id="Group_137" data-name="Group 137" clip-path="url(#clip-path-33)">
              <path id="Path_284" data-name="Path 284" d="M67.263,18.1C32.185,23.866-25,32.035-29.321,33.957s-6.727,5.766-4.325,17.779a175.386,175.386,0,0,0,5.286,22.1c1.922,6.247,1.922,12.493,19.7,12.013s61.987-4.325,67.273-5.286l6.247-1.922Z" transform="translate(34.607 -18.1)" fill="#fff"/>
            </g>
          </g>
        </g>
        <g id="Group_142" data-name="Group 142" transform="translate(-150.403 165.299)" opacity="0.4">
          <g id="Group_141" data-name="Group 141" clip-path="url(#clip-path-35)">
            <g id="Group_140" data-name="Group 140" clip-path="url(#clip-path-35)">
              <path id="Path_285" data-name="Path 285" d="M51.755,34.4,20.521,43.53C9.469,46.894-11.193,50.738-20.8,53.14s-12.013,13.935-9.61,22.584c0,0,8.649,43.727,10.571,51.416s7.208,14.9,21.623,13.455,34.117-5.286,39.4-8.649S51.755,34.4,51.755,34.4" transform="translate(31.375 -34.4)" fill="#fff"/>
            </g>
          </g>
        </g>
        <g id="Group_145" data-name="Group 145" transform="translate(-129.74 283.987)" opacity="0.5">
          <g id="Group_144" data-name="Group 144" clip-path="url(#clip-path-37)">
            <g id="Group_143" data-name="Group 143" clip-path="url(#clip-path-37)">
              <path id="Path_286" data-name="Path 286" d="M23.643,59.1-19.123,72.555c-10.571,3.364-7.688,13.935-7.208,18.26s2.883,25.468,3.844,29.792,0,11.532,14.416,8.649,23.065-5.286,27.39-11.532S24.124,59.1,24.124,59.1" transform="translate(26.812 -59.1)" fill="#fff"/>
            </g>
          </g>
        </g>
        <g id="Group_148" data-name="Group 148" transform="translate(-124.455 364.234)" opacity="0.6">
          <g id="Group_147" data-name="Group 147" clip-path="url(#clip-path-39)">
            <g id="Group_146" data-name="Group 146" clip-path="url(#clip-path-39)">
              <path id="Path_287" data-name="Path 287" d="M14.331,75.8a90.823,90.823,0,0,1-19.7,9.61c-7.688,2.4-12.013,1.922-14.9,2.883s-6.727,6.727-5.286,16.818a290.24,290.24,0,0,1,.481,33.156,12.013,12.013,0,0,0,4.123,9.806,12.013,12.013,0,0,0,10.292,2.688,83.129,83.129,0,0,0,24.506-6.727c0-.48,0-67.753,0-67.753" transform="translate(26.033 -75.8)" fill="#fff"/>
            </g>
          </g>
        </g>
        <g id="Group_151" data-name="Group 151" transform="translate(-123.013 450.247)" opacity="0.7">
          <g id="Group_150" data-name="Group 150" clip-path="url(#clip-path-41)">
            <g id="Group_149" data-name="Group 149" clip-path="url(#clip-path-41)">
              <path id="Path_288" data-name="Path 288" d="M12.842,93.7a114.847,114.847,0,0,1-26.909,12.013c-6.727,1.922-11.532,3.844-11.532,16.818s0,27.39.481,33.156,0,11.052,11.532,9.13A76.887,76.887,0,0,0,6.595,158.09L9.958,140.31Z" transform="translate(25.6 -93.7)" fill="#fff"/>
            </g>
          </g>
        </g>
        <g id="Group_154" data-name="Group 154" transform="translate(-123.494 533.857)" opacity="0.8">
          <g id="Group_153" data-name="Group 153" clip-path="url(#clip-path-43)">
            <g id="Group_152" data-name="Group 152" clip-path="url(#clip-path-43)">
              <path id="Path_289" data-name="Path 289" d="M3.791,111.1c-2.4,1.442-16.818,5.286-21.623,7.208a9.61,9.61,0,0,0-6.3,4.129,9.61,9.61,0,0,0-1.388,7.4c0,8.169.481,30.273.481,36.519s-1.442,13.455,10.091,10.571A27.87,27.87,0,0,0-.534,169.723Z" transform="translate(25.521 -111.1)" fill="#fff"/>
            </g>
          </g>
        </g>
        <path id="Path_290" data-name="Path 290" d="M-4.541,127c-6.247,3.844-13.935,5.286-16.818,9.61a17.3,17.3,0,0,0-3.364,14.9,55.26,55.26,0,0,0,20.182,27.87c.481,0-.961-27.87-.961-27.87Z" transform="translate(-95.887 483.26)" fill="#fff"/>
        <path id="Path_291" data-name="Path 291" d="M-39.944,19.064c20.662-1.922,55.26-3.364,70.636-3.364s70.156,2.4,74,2.883,8.649,1.922-.961,3.364-51.9,5.286-72.558,5.286-65.351-2.883-73.519-4.805S-39.944,19.064-39.944,19.064Z" transform="translate(-172.926 59.742)" fill="none" stroke="#fff" stroke-miterlimit="10" stroke-width="2.643"/>
        <path id="Path_292" data-name="Path 292" d="M84.522,17.7C63.379,22.025-15.426,27.791-21.673,28.752s-20.182.961-16.818,22.584A374.312,374.312,0,0,0-27.92,95.544c2.4,9.13,9.61,11.532,28.351,7.688s63.909-8.649,69.675-9.61,8.649,2.883.481,4.325L-10.14,110.921c-7.688.961-15.377,3.364-12.974,16.818S-6.3,201.258-5.335,206.544s3.844,16.818,21.143,13.935,40.844-9.13,43.727-9.61l10.091-3.364v4.325s-25.468,7.208-35.558,9.13L15.327,224.8A12.974,12.974,0,0,0,3.314,240.18c1.922,12.013,7.208,47.571,8.169,53.338s3.364,9.13,13.935,7.688a179.711,179.711,0,0,0,31.234-8.649c7.208-3.364,7.688-5.766,7.688-5.766V294l-6.727,3.364A219.6,219.6,0,0,1,28.3,305.531c-6.247.961-14.9,4.805-14.9,14.9,0,0,.961,51.415.961,55.74A9.61,9.61,0,0,0,26.86,386.258a266.225,266.225,0,0,0,29.792-8.169,31.232,31.232,0,0,0,7.688-3.844v5.286l-10.091,3.844c-8.649,2.883-23.065,6.247-26.429,7.208s-13.455.961-12.974,13.455,3.364,51.416,3.364,55.26,0,8.649,10.571,6.247,23.545-5.766,26.909-8.649-.961,5.766-.961,5.766a47.575,47.575,0,0,1-10.571,3.844l-14.9,3.844c-3.844.961-10.091.961-10.091,12.013s.961,49.013,1.442,53.818,1.922,8.169,8.169,7.208,19.7-3.844,21.623-8.169V540.5a25.95,25.95,0,0,1-6.727,3.364c-4.805,1.442-14.416,2.883-18.26,10.091s-3.844,7.688-3.844,19.7S23.5,594.8,34.548,604.414a19.221,19.221,0,0,0,12.974,5.766" transform="translate(-148.431 67.352)" fill="none" stroke="#fff" stroke-miterlimit="10" stroke-width="2.643"/>
        <path id="Path_293" data-name="Path 293" d="M69.432,84.131C58.38,87.014-1.2,92.78-13.217,93.742s-15.377-8.169-16.818-14.9a260.437,260.437,0,0,1-5.286-26.429C-37.243,39.923-33.4,35.6-23.308,32.716S72.315,18.3,72.315,18.3" transform="translate(-136.224 69.635)" fill="none" stroke="#535265" stroke-miterlimit="10" stroke-width="1.345"/>
        <path id="Path_294" data-name="Path 294" d="M56.8,34.3A418.049,418.049,0,0,1-12.879,51.118c-18.74,2.4-20.662,16.818-19.221,26.429s9.13,45.169,11.052,54.779a18.74,18.74,0,0,0,7.643,12.681,18.74,18.74,0,0,0,14.461,3.176,168.666,168.666,0,0,0,43.727-10.091" transform="translate(-123.588 130.518)" fill="none" stroke="#535265" stroke-miterlimit="10" stroke-width="1.345"/>
        <path id="Path_295" data-name="Path 295" d="M27.307,59.1S-18.342,72.555-22.186,74.477s-6.727,6.727-5.766,14.416,4.325,34.117,4.805,40.844,5.286,8.169,14.9,6.727,23.065-1.922,31.234-10.571" transform="translate(-107.073 224.887)" fill="none" stroke="#535265" stroke-miterlimit="10" stroke-width="1.345"/>
        <path id="Path_296" data-name="Path 296" d="M17.715,75.5A60.544,60.544,0,0,1-2.467,86.071L-18.324,90.4c-4.805,1.442-9.13,6.247-8.169,15.377s0,33.156,0,39.4a14.9,14.9,0,0,0,5.034,10.261,14.9,14.9,0,0,0,10.823,3.674c11.052-1.442,22.1-4.325,26.429-8.169" transform="translate(-101.325 287.292)" fill="none" stroke="#535265" stroke-miterlimit="10" stroke-width="1.345"/>
        <path id="Path_297" data-name="Path 297" d="M15.405,93.7a124.934,124.934,0,0,1-31.714,12.974c-9.13,1.922-10.091,9.61-10.091,15.377s.961,40.364.481,43.247,2.883,6.727,9.61,5.766S2.431,167.7,8.2,163.375" transform="translate(-100.457 356.547)" fill="none" stroke="#535265" stroke-miterlimit="10" stroke-width="1.345"/>
        <path id="Path_298" data-name="Path 298" d="M5.414,111.1c-4.325,2.4-20.662,6.247-24.987,8.169a9.13,9.13,0,0,0-6.727,8.649c0,4.805.481,46.13.481,48.532s.481,7.208,6.247,6.727,17.779-2.883,21.143-8.649" transform="translate(-100.077 422.757)" fill="none" stroke="#535265" stroke-miterlimit="10" stroke-width="1.345"/>
        <path id="Path_299" data-name="Path 299" d="M-.052,127c-2.4,2.4-10.571,5.766-14.416,8.169S-25.519,141.9-26,150.065a33.639,33.639,0,0,0,10.094,24.029A172.024,172.024,0,0,0-1.013,187.545" transform="translate(-98.935 483.26)" fill="none" stroke="#535265" stroke-miterlimit="10" stroke-width="1.345"/>
        <path id="Path_300" data-name="Path 300" d="M49.5,126.6a7.688,7.688,0,0,1-1.922,8.649,123.013,123.013,0,0,1-31.234,30.273L-46.6,209.73" transform="translate(-177.322 481.738)" fill="none" stroke="#fff" stroke-miterlimit="10" stroke-width="2.643"/>
        <path id="Path_301" data-name="Path 301" d="M89.725,142.04c-3.844,1.922-12.494,4.805-20.662,7.688L33.985,162.7c-7.208,2.4-46.13,16.338-49.013,16.818s-5.766.961-6.247-5.766a63.91,63.91,0,0,0-4.805-21.143,20.662,20.662,0,0,0-7.208-9.13c-9.61-5.766-15.377-2.883-17.779.961A36.52,36.52,0,0,0-52.508,157.9a2.883,2.883,0,0,0,1.148,2.473,2.883,2.883,0,0,0,2.7.41l22.1-9.13" transform="translate(-200.245 533.57)" fill="none" stroke="#fff" stroke-miterlimit="10" stroke-width="2.643"/>
        <path id="Path_302" data-name="Path 302" d="M-15.913,17.08c0,16.818,1.442,53.338,2.4,59.584s16.338,112.922,18.26,125.9,8.649,60.065,9.13,69.195,3.364,46.13,2.4,60.545,0,60.545.961,68.714S31.658,492.795,33.1,499.522s10.091,39.4-2.4,52.377a70.157,70.157,0,0,1-18.26,16.818l-60.545,38.922a17.3,17.3,0,0,0-4.805,13.935c0,4.805-.48,12.013-.48,14.9a2.4,2.4,0,0,0,1.442,2.4l9.13,4.805S-21.2,654.73-16.874,656.171A47.092,47.092,0,0,0-.056,655.21l35.078-11.052c6.727-2.4,57.662-22.584,59.584-23.545s11.532-4.805,9.61-18.74a168.183,168.183,0,0,1-.961-24.507s5.766-103.312,6.727-110.039,6.247-32.675,6.247-37.961S122,346.717,120.074,322.21s4.805-111.961,6.247-122.052,9.61-70.636,10.571-90.338S140.256,16.6,140.256,16.6" transform="translate(-203.204 63.166)" fill="none" stroke="#fff" stroke-miterlimit="10" stroke-width="2.643"/>
        <path id="Path_303" data-name="Path 303" d="M65.67,13.081S86.813,156.275,87.293,163.964s7.688,54.3,7.208,66.312a420.461,420.461,0,0,0,3.364,47.572c1.442,10.571,9.13,46.61,9.61,57.662s5.286,148.961,5.286,158.091,4.325,51.416-16.818,71.117A408.451,408.451,0,0,1,28.67,611.808L8.968,619.5c-2.883.961-8.169,3.844-2.883,10.571A41.325,41.325,0,0,0,20.02,644a78.325,78.325,0,0,0,37.48,4.325,105.71,105.71,0,0,0,37-12.974,133.107,133.107,0,0,1,41.325-9.61c23.545-2.4,30.273-16.338,29.792-26.909s-4.805-38.442-5.766-42.766-.961-31.714,1.922-41.325,15.857-57.182,17.779-71.117,12.974-75.922,9.61-101.87a534.821,534.821,0,0,1-2.883-74.961c.48-4.805,18.74-104.273,19.221-109.559S220.878,12.6,220.878,12.6" transform="translate(14.577 47.945)" fill="none" stroke="#535265" stroke-miterlimit="10" stroke-width="1.345"/>
        <path id="Path_304" data-name="Path 304" d="M12.991,598.9l46.13-28.831c7.688-4.805,30.753-25.467,33.636-38.922s-3.844-95.623-3.844-95.623L77.381,269.743,59.121,100.12c-6.247-59.584-7.688-72.078-7.688-76.883s0-4.805,5.286-4.805l73.519,1.922c64.39-.961,69.675-3.844,75.442-4.805s9.13-3.364,8.169,9.61-12.974,123.013-15.377,135.026-12.494,86.013-13.455,96.1,1.922,70.156,1.922,78.325-2.883,69.675-12.974,107.636-16.338,72.558-16.338,87.935a289.749,289.749,0,0,0,2.883,50.454c2.883,13.455,4.325,31.234-20.182,40.364l-37,11.532c-9.61,2.883-26.429,10.091-36.039,13.454a139.362,139.362,0,0,1-24.506,5.286c-3.364.481-4.805,0-5.286-6.247S32.693,611.392,25,604.185,5.784,596.5,6.745,608.99" transform="translate(25.45 56.049)" fill="none" stroke="#fff" stroke-miterlimit="10" stroke-width="2.643"/>
        <line id="Line_50" data-name="Line 50" y1="55.26" x2="3.844" transform="translate(154.247 481.48)" fill="none" stroke="#535265" stroke-miterlimit="10" stroke-width="1.97"/>
        <path id="Path_305" data-name="Path 305" d="M47.438,108.93l-1.922,1.442-5.766-7.688-7.208,6.727L31.1,107.969,39.749,99.8Z" transform="translate(118.342 379.758)" fill="#535265"/>
        <line id="Line_51" data-name="Line 51" x1="0.961" y1="56.701" transform="translate(157.61 359.909)" fill="none" stroke="#535265" stroke-miterlimit="10" stroke-width="1.97"/>
        <path id="Path_306" data-name="Path 306" d="M47.057,82.669,45.616,84.11l-6.727-6.727-6.247,7.208L31.2,83.149,38.888,74.5Z" transform="translate(118.722 283.487)" fill="#535265"/>
        <line id="Line_52" data-name="Line 52" x1="0.481" y1="56.701" transform="translate(156.169 230.649)" fill="none" stroke="#535265" stroke-miterlimit="10" stroke-width="1.97"/>
        <path id="Path_307" data-name="Path 307" d="M47.138,56.249,45.7,57.21l-6.727-6.727-6.727,7.208L30.8,56.249,38.969,47.6Z" transform="translate(117.2 181.127)" fill="#535265"/>
        <line id="Line_53" data-name="Line 53" y1="57.182" x2="4.325" transform="translate(151.844 106.675)" fill="none" stroke="#535265" stroke-miterlimit="10" stroke-width="1.97"/>
        <path id="Path_308" data-name="Path 308" d="M47.038,30.93,45.6,32.371l-6.247-7.688L32.142,31.41,30.7,29.969,39.349,21.8Z" transform="translate(116.82 82.953)" fill="#535265"/>
        <path id="Path_309" data-name="Path 309" d="M54.232,75.266A5.766,5.766,0,1,1,48.466,69.5a5.766,5.766,0,0,1,5.766,5.766" transform="translate(162.482 264.461)" fill="#7ccbb6"/>
        <path id="Path_310" data-name="Path 310" d="M54.232,75.266A5.766,5.766,0,1,1,48.466,69.5a5.766,5.766,0,0,1,5.766,5.766Z" transform="translate(162.482 264.461)" fill="none" stroke="#fff" stroke-miterlimit="10" stroke-width="2.21"/>
        <path id="Path_311" data-name="Path 311" d="M32.032,74.466A5.766,5.766,0,1,1,26.266,68.7a5.766,5.766,0,0,1,5.766,5.766" transform="translate(78.006 261.417)" fill="#7ccbb6"/>
        <path id="Path_312" data-name="Path 312" d="M32.032,74.466A5.766,5.766,0,1,1,26.266,68.7,5.766,5.766,0,0,1,32.032,74.466Z" transform="translate(78.006 261.417)" fill="none" stroke="#fff" stroke-miterlimit="10" stroke-width="2.21"/>
      </g>
    </g>
  </g>
</svg>
